<?xml version="1.0" encoding="UTF-8"?>
<svg version="1.1" xmlns="http://www.w3.org/2000/svg" width="784" height="1168">
<path d="M0 0 C258.72 0 517.44 0 784 0 C784 385.44 784 770.88 784 1168 C525.28 1168 266.56 1168 0 1168 C0 782.56 0 397.12 0 0 Z " fill="#7AB1C5" transform="translate(0,0)"/>
<path d="M0 0 C2.23085161 0.03679249 4.46003615 0.04101497 6.69116211 0.04052734 C19.02797875 0.09940984 31.01649555 1.35179253 42.90795898 4.78662109 C43.6362793 4.98255859 44.36459961 5.17849609 45.11499023 5.38037109 C49.516635 6.62005001 53.44665649 8.24139621 57.49145508 10.36743164 C59.62261589 11.45747885 61.78522802 12.40460696 63.98608398 13.34521484 C82.72690243 21.59551088 102.49117388 35.95847689 113.53295898 53.41162109 C113.53295898 54.07162109 113.53295898 54.73162109 113.53295898 55.41162109 C114.19295898 55.41162109 114.85295898 55.41162109 115.53295898 55.41162109 C116.86157227 57.03222656 116.86157227 57.03222656 118.35327148 59.27880859 C119.15571289 60.4834375 119.15571289 60.4834375 119.97436523 61.71240234 C120.52995117 62.56189453 121.08553711 63.41138672 121.65795898 64.28662109 C122.2212793 65.12837891 122.78459961 65.97013672 123.36499023 66.83740234 C127.53295898 73.14486111 127.53295898 73.14486111 127.53295898 75.41162109 C128.85295898 75.41162109 130.17295898 75.41162109 131.53295898 75.41162109 C131.53295898 74.75162109 131.53295898 74.09162109 131.53295898 73.41162109 C163.21005384 64.00187183 194.01614999 63.52174568 223.83374023 79.33349609 C228.67740381 81.99855787 233.14819212 85.0492092 237.53295898 88.41162109 C238.82266602 89.36294922 238.82266602 89.36294922 240.13842773 90.33349609 C244.83824892 93.86018362 244.83824892 93.86018362 246.53295898 95.41162109 C246.53295898 96.07162109 246.53295898 96.73162109 246.53295898 97.41162109 C247.19295898 97.41162109 247.85295898 97.41162109 248.53295898 97.41162109 C251.76646873 100.87992926 254.61405723 104.67748835 257.53295898 108.41162109 C258.56743164 109.68972656 258.56743164 109.68972656 259.62280273 110.99365234 C271.70101457 126.56378284 279.88292251 147.60951809 279.53295898 167.41162109 C280.83233398 167.52119141 282.13170898 167.63076172 283.47045898 167.74365234 C288.38823938 168.29488242 292.8588494 169.50799917 297.53295898 171.09912109 C298.31968994 171.3638623 299.1064209 171.62860352 299.91699219 171.90136719 C305.80003084 173.96711113 310.56142918 176.65055072 315.53295898 180.41162109 C317.23452148 181.33974609 317.23452148 181.33974609 318.97045898 182.28662109 C339.83047714 193.97209422 355.48141817 216.54369189 362.84545898 238.91162109 C363.44116336 241.06939471 364.00271116 243.23683652 364.53295898 245.41162109 C364.83073242 246.61947266 365.12850586 247.82732422 365.43530273 249.07177734 C370.50085881 272.39201017 366.82896396 295.27760783 358.53295898 317.41162109 C357.87295898 317.41162109 357.21295898 317.41162109 356.53295898 317.41162109 C355.87295898 320.05162109 355.21295898 322.69162109 354.53295898 325.41162109 C353.87295898 325.41162109 353.21295898 325.41162109 352.53295898 325.41162109 C352.27643555 326.12962891 352.01991211 326.84763672 351.75561523 327.58740234 C342.85333164 348.1508242 321.07305864 364.17285448 300.88452148 372.21630859 C296.8619774 373.65092222 292.81189831 374.93901421 288.72045898 376.16162109 C287.66242065 376.47800537 287.66242065 376.47800537 286.58300781 376.80078125 C266.22807633 382.65489508 241.17873005 381.2402303 221.53295898 373.41162109 C220.63448242 373.06099609 219.73600586 372.71037109 218.81030273 372.34912109 C214.02299954 370.43100295 209.26259855 368.46798612 204.53295898 366.41162109 C204.31381836 367.26626953 204.09467773 368.12091797 203.86889648 369.00146484 C202.26326402 373.10005297 200.06291174 375.72898309 197.15795898 378.97412109 C196.19125921 380.07910547 195.22510474 381.18456717 194.25952148 382.29052734 C193.79578125 382.81404785 193.33204102 383.33756836 192.85424805 383.87695312 C191.61869978 385.31203376 190.45903999 386.81148392 189.30639648 388.31396484 C188.72116211 389.00619141 188.13592773 389.69841797 187.53295898 390.41162109 C186.87295898 390.41162109 186.21295898 390.41162109 185.53295898 390.41162109 C185.53295898 391.07162109 185.53295898 391.73162109 185.53295898 392.41162109 C184.87295898 392.41162109 184.21295898 392.41162109 183.53295898 392.41162109 C183.53295898 393.07162109 183.53295898 393.73162109 183.53295898 394.41162109 C181.06799617 396.95920836 178.26081243 399.1516519 175.53295898 401.41162109 C174.71569336 402.09224609 173.89842773 402.77287109 173.05639648 403.47412109 C159.67453095 414.41162109 159.67453095 414.41162109 155.53295898 414.41162109 C155.20295898 415.40162109 154.87295898 416.39162109 154.53295898 417.41162109 C151.92104099 418.83359923 149.3688589 420.08468339 146.65795898 421.28662109 C145.49321045 421.81606323 145.49321045 421.81606323 144.30493164 422.35620117 C142.75187481 423.0614174 141.19704601 423.76274572 139.64038086 424.45996094 C137.91199141 425.24045933 136.19697004 426.05049786 134.48608398 426.86865234 C96.70109111 444.90239894 50.02679494 445.41787761 10.81420898 431.79052734 C-3.21804875 426.63764814 -16.42568184 420.29128992 -28.46704102 411.41162109 C-29.05880127 410.98244385 -29.65056152 410.5532666 -30.26025391 410.11108398 C-46.63882797 398.12831443 -60.88887583 384.132044 -72.46704102 367.41162109 C-73.07290039 367.53279297 -73.67875977 367.65396484 -74.30297852 367.77880859 C-76.0710576 368.13242441 -77.83929932 368.48522762 -79.60766602 368.83740234 C-81.43181245 369.20372683 -83.25486817 369.57555519 -85.07641602 369.95458984 C-85.90657227 370.12603516 -86.73672852 370.29748047 -87.59204102 370.47412109 C-88.33711914 370.63009766 -89.08219727 370.78607422 -89.84985352 370.94677734 C-112.07822394 374.89480135 -133.37890697 371.82698396 -154.46704102 364.41162109 C-155.4918457 364.05455078 -156.51665039 363.69748047 -157.57250977 363.32958984 C-169.71710804 358.69136945 -180.54680741 351.36125798 -190.40454102 342.97412109 C-191.00186035 342.4661499 -191.59917969 341.95817871 -192.21459961 341.43481445 C-194.81834858 339.14260877 -196.35146998 337.75833419 -197.46704102 334.41162109 C-198.12704102 334.41162109 -198.78704102 334.41162109 -199.46704102 334.41162109 C-201.06114046 332.59373462 -202.52090639 330.7807102 -203.96704102 328.84912109 C-204.40846436 328.25977783 -204.8498877 327.67043457 -205.3046875 327.06323242 C-206.23552292 325.80963258 -207.16176437 324.55261049 -208.08374023 323.29248047 C-208.9677904 322.09044685 -209.86175645 320.89560287 -210.76831055 319.71044922 C-229.43633996 295.24243383 -234.21257989 263.8844259 -230.65454102 233.91162109 C-229.76709594 227.57820012 -228.40347172 221.50492303 -226.46704102 215.41162109 C-225.80704102 215.41162109 -225.14704102 215.41162109 -224.46704102 215.41162109 C-224.3368457 214.86763672 -224.20665039 214.32365234 -224.07250977 213.76318359 C-221.76193999 204.78922874 -218.51095404 197.17252194 -213.46704102 189.41162109 C-212.95270508 188.49251953 -212.43836914 187.57341797 -211.90844727 186.62646484 C-211.4327832 185.89556641 -210.95711914 185.16466797 -210.46704102 184.41162109 C-209.80704102 184.41162109 -209.14704102 184.41162109 -208.46704102 184.41162109 C-208.36262695 183.82896484 -208.25821289 183.24630859 -208.15063477 182.64599609 C-207.36410484 180.07516687 -206.2913821 178.6776153 -204.52954102 176.66162109 C-203.74256836 175.74123047 -203.74256836 175.74123047 -202.93969727 174.80224609 C-201.46704102 173.41162109 -201.46704102 173.41162109 -199.46704102 173.41162109 C-199.13704102 172.42162109 -198.80704102 171.43162109 -198.46704102 170.41162109 C-197.80704102 170.41162109 -197.14704102 170.41162109 -196.46704102 170.41162109 C-196.20076904 169.80946777 -195.93449707 169.20731445 -195.66015625 168.58691406 C-194.42952715 166.34322565 -193.34963793 165.20379557 -191.37719727 163.60693359 C-190.76336182 163.1087915 -190.14952637 162.61064941 -189.51708984 162.09741211 C-188.86119873 161.58235107 -188.20530762 161.06729004 -187.52954102 160.53662109 C-186.85366943 160.00286865 -186.17779785 159.46911621 -185.48144531 158.91918945 C-176.54791116 151.99604437 -166.95074973 147.52864555 -156.46704102 143.41162109 C-155.72325195 143.11255859 -154.97946289 142.81349609 -154.21313477 142.50537109 C-148.04187169 140.09000394 -142.13977006 138.26180162 -135.46704102 138.41162109 C-135.51924805 137.33460938 -135.51924805 137.33460938 -135.57250977 136.23583984 C-136.14559071 114.32231599 -129.43963323 95.0892657 -120.46704102 75.41162109 C-119.80704102 75.41162109 -119.14704102 75.41162109 -118.46704102 75.41162109 C-118.3471582 74.84830078 -118.22727539 74.28498047 -118.10375977 73.70458984 C-114.25681441 59.85086639 -100.52273783 44.17890755 -89.46704102 35.41162109 C-88.80704102 35.41162109 -88.14704102 35.41162109 -87.46704102 35.41162109 C-87.46704102 34.75162109 -87.46704102 34.09162109 -87.46704102 33.41162109 C-83.70874223 30.06136618 -79.50657115 27.37363416 -75.27954102 24.66162109 C-74.65112305 24.25041016 -74.02270508 23.83919922 -73.37524414 23.41552734 C-68.70970869 20.41162109 -68.70970869 20.41162109 -66.46704102 20.41162109 C-66.46704102 19.75162109 -66.46704102 19.09162109 -66.46704102 18.41162109 C-45.245058 7.88835216 -23.98165141 -0.40705107 0 0 Z " fill="#FCFEFD" transform="translate(324.467041015625,378.58837890625)"/>
<path d="M0 0 C0.33 0 0.66 0 1 0 C1.0501123 0.68513672 1.10022461 1.37027344 1.15185547 2.07617188 C1.38574446 5.21802764 1.63029178 8.35896913 1.875 11.5 C1.95363281 12.57765625 2.03226563 13.6553125 2.11328125 14.765625 C2.58750857 20.74818505 3.37969874 26.22539249 5 32 C5.28359375 33.27359375 5.5671875 34.5471875 5.859375 35.859375 C8.54320491 47.58347406 12.7809793 57.35996381 19.8984375 67.16015625 C21 69 21 69 21 72 C21.99 72.33 22.98 72.66 24 73 C27 77.33333333 27 77.33333333 27 80 C27.66 80 28.32 80 29 80 C29.598125 80.9075 30.19625 81.815 30.8125 82.75 C32.97477843 85.96252795 34.93418009 87.70063506 38 90 C40.3125 92.125 40.3125 92.125 42 94 C42 94.66 42 95.32 42 96 C42.88945312 96.16822266 42.88945312 96.16822266 43.796875 96.33984375 C46.21037814 97.06303884 47.35049207 97.93371634 49.25 99.5625 C69.46348607 115.13437075 97.9797992 121.1852103 123 119 C128.74091011 118.16415868 134.35267157 116.85036227 139.97949219 115.45751953 C142.9685357 114.78068682 145.96014372 114.38098463 149 114 C149.37125 114.721875 149.7425 115.44375 150.125 116.1875 C151.95519148 118.93278722 153.88463701 120.71504563 156.45703125 122.75390625 C159.86859096 125.5090646 162.71298301 128.6393889 165.4375 132.0625 C167.48570275 134.41043974 168.78645067 135.65491251 171.3125 137.25 C172.199375 137.8275 173.08625 138.405 174 139 C174 139.66 174 140.32 174 141 C174.54785156 141.24878906 175.09570312 141.49757813 175.66015625 141.75390625 C178.46238594 143.2462456 180.89158197 145.04130308 183.4375 146.9375 C186.87230329 149.49329939 190.30327126 151.84162515 194 154 C194.83660156 154.51820313 195.67320312 155.03640625 196.53515625 155.5703125 C197.36917969 156.08335937 198.20320312 156.59640625 199.0625 157.125 C199.89910156 157.64320313 200.73570312 158.16140625 201.59765625 158.6953125 C203.77901207 159.87998379 205.57672314 160.54108845 208 161 C208 161.66 208 162.32 208 163 C208.6290625 163.18175781 209.258125 163.36351562 209.90625 163.55078125 C215.37061108 165.15552584 220.69219738 166.93585454 226 169 C226 169.66 226 170.32 226 171 C226.886875 171.0825 227.77375 171.165 228.6875 171.25 C234.63253789 172.08375531 240.29203869 174.20463874 246 176 C259.45290692 179.96971024 273.49134531 180.35133571 287.41796875 180.31567383 C289.99782225 180.31250268 292.57653596 180.33612796 295.15625 180.36132812 C305.81930965 180.40299984 315.60142735 179.40750014 326 177 C327.70470459 176.61557739 327.70470459 176.61557739 329.44384766 176.22338867 C332.57624829 175.49524497 335.69468397 174.72551944 338.8125 173.9375 C339.85986328 173.68162109 340.90722656 173.42574219 341.98632812 173.16210938 C342.98728516 172.91138672 343.98824219 172.66066406 345.01953125 172.40234375 C345.90745361 172.18054443 346.79537598 171.95874512 347.71020508 171.73022461 C350.23922429 171.03961741 350.23922429 171.03961741 353 169 C354.99970831 168.33245889 356.9997648 167.66596066 359 167 C361.74287865 165.8432702 364.43408876 164.58482146 367.125 163.3125 C367.86693604 162.96380859 368.60887207 162.61511719 369.37329102 162.25585938 C375.04302603 159.55033595 380.4270335 156.5470275 385.77734375 153.25 C388 152 388 152 390 152 C390 151.34 390 150.68 390 150 C395.75 147 395.75 147 398 147 C398.33 146.01 398.66 145.02 399 144 C403.45714286 140 403.45714286 140 406 140 C406.38478516 139.10861328 406.38478516 139.10861328 406.77734375 138.19921875 C408.11709565 135.78937747 409.4373243 134.55128012 411.5625 132.8125 C419.7907691 126.24775161 419.7907691 126.24775161 426 118 C426.66 118 427.32 118 428 118 C428 117.34 428 116.68 428 116 C428.66 116 429.32 116 430 116 C430 115.34 430 114.68 430 114 C432.92879371 114.62759865 435.36095629 115.58622659 438 117 C438 117.66 438 118.32 438 119 C441.3 119.66 444.6 120.32 448 121 C448 121.66 448 122.32 448 123 C449.216875 123.103125 450.43375 123.20625 451.6875 123.3125 C455.55630276 123.72037378 459.12389851 124.54427527 462.875 125.5625 C480.69304227 129.77328298 500.09762511 126.70477873 517.203125 120.8671875 C520.12317035 119.96181031 522.97758605 119.4381606 526 119 C526 118.34 526 117.68 526 117 C527.72718516 116.03810003 529.45684058 115.08063492 531.1875 114.125 C532.15042969 113.59132813 533.11335937 113.05765625 534.10546875 112.5078125 C537 111 537 111 539.80078125 109.92578125 C542.59314655 108.75030953 542.71355748 107.6532877 544 105 C544.763125 104.54625 545.52625 104.0925 546.3125 103.625 C548.81273971 102.11322715 549.92209568 101.0427593 551.6875 98.8125 C552.450625 97.884375 553.21375 96.95625 554 96 C554.66 96 555.32 96 556 96 C556 95.34 556 94.68 556 94 C556.66 94 557.32 94 558 94 C558.268125 93.195625 558.53625 92.39125 558.8125 91.5625 C559.4003125 90.2940625 559.4003125 90.2940625 560 89 C561.485 88.505 561.485 88.505 563 88 C563.71949183 86.35544725 564.36971413 84.68076231 565 83 C566.60615314 79.96559042 568.29809204 76.98158684 570 74 C570.66 74 571.32 74 572 74 C572.18175781 73.34773437 572.36351562 72.69546875 572.55078125 72.0234375 C572.92783203 70.71246094 572.92783203 70.71246094 573.3125 69.375 C573.67794922 68.08722656 573.67794922 68.08722656 574.05078125 66.7734375 C575 64 575 64 576.5 61.15625 C578.21244473 57.55298087 578.99673352 54.02046999 579.6875 50.125 C579.81705078 49.43664062 579.94660156 48.74828125 580.08007812 48.0390625 C580.39474121 46.36085938 580.69851465 44.68062047 581 43 C581.33 43 581.66 43 582 43 C582.48444764 44.99872739 582.9622766 46.99905937 583.4375 49 C583.70433594 50.11375 583.97117187 51.2275 584.24609375 52.375 C589.01711615 75.31546003 585.12971587 98.3096515 577 120 C576.34 120 575.68 120 575 120 C574.34 122.64 573.68 125.28 573 128 C572.34 128 571.68 128 571 128 C570.74347656 128.71800781 570.48695313 129.43601562 570.22265625 130.17578125 C561.32037265 150.73920311 539.54009966 166.76123338 519.3515625 174.8046875 C515.32901841 176.23930113 511.27893933 177.52739312 507.1875 178.75 C506.48214111 178.96092285 505.77678223 179.1718457 505.05004883 179.38916016 C484.69511735 185.24327399 459.64577106 183.82860921 440 176 C439.10152344 175.649375 438.20304687 175.29875 437.27734375 174.9375 C432.49004056 173.01938186 427.72963957 171.05636503 423 169 C422.78085937 169.85464844 422.56171875 170.70929688 422.3359375 171.58984375 C420.73030504 175.68843188 418.52995275 178.31736199 415.625 181.5625 C414.65830022 182.66748437 413.69214576 183.77294608 412.7265625 184.87890625 C412.26282227 185.40242676 411.79908203 185.92594727 411.32128906 186.46533203 C410.08574079 187.90041267 408.92608101 189.39986283 407.7734375 190.90234375 C407.18820312 191.59457031 406.60296875 192.28679687 406 193 C405.34 193 404.68 193 404 193 C404 193.66 404 194.32 404 195 C403.34 195 402.68 195 402 195 C402 195.66 402 196.32 402 197 C399.53503719 199.54758726 396.72785344 201.74003081 394 204 C393.18273437 204.680625 392.36546875 205.36125 391.5234375 206.0625 C378.14157197 217 378.14157197 217 374 217 C373.67 217.99 373.34 218.98 373 220 C370.388082 221.42197813 367.83589991 222.6730623 365.125 223.875 C363.96025146 224.40444214 363.96025146 224.40444214 362.77197266 224.94458008 C361.21891582 225.64979631 359.66408703 226.35112463 358.10742188 227.04833984 C356.37903242 227.82883823 354.66401105 228.63887677 352.953125 229.45703125 C315.16813212 247.49077785 268.49383595 248.00625652 229.28125 234.37890625 C215.24899226 229.22602705 202.04135918 222.87966882 190 214 C189.40823975 213.57082275 188.81647949 213.14164551 188.20678711 212.69946289 C171.82821304 200.71669334 157.57816518 186.72042291 146 170 C145.39414063 170.12117187 144.78828125 170.24234375 144.1640625 170.3671875 C142.39598341 170.72080332 140.62774169 171.07360653 138.859375 171.42578125 C137.03522857 171.79210574 135.21217285 172.16393409 133.390625 172.54296875 C132.56046875 172.71441406 131.7303125 172.88585937 130.875 173.0625 C130.12992188 173.21847656 129.38484375 173.37445312 128.6171875 173.53515625 C106.38881707 177.48318025 85.08813405 174.41536287 64 167 C62.97519531 166.64292969 61.95039063 166.28585937 60.89453125 165.91796875 C48.74993298 161.27974836 37.9202336 153.94963689 28.0625 145.5625 C27.166521 144.80054321 27.166521 144.80054321 26.25244141 144.02319336 C23.64869243 141.73098767 22.11557103 140.34671309 21 137 C20.34 137 19.68 137 19 137 C17.40590056 135.18211352 15.94613462 133.36908911 14.5 131.4375 C14.05857666 130.84815674 13.61715332 130.25881348 13.16235352 129.65161133 C12.23151809 128.39801148 11.30527664 127.14098939 10.38330078 125.88085938 C9.49925062 124.67882576 8.60528457 123.48398178 7.69873047 122.29882812 C-10.96929894 97.83081273 -15.74553887 66.47280481 -12.1875 36.5 C-11.30005492 30.16657902 -9.9364307 24.09330194 -8 18 C-7.34 18 -6.68 18 -6 18 C-5.814375 17.19949219 -5.814375 17.19949219 -5.625 16.3828125 C-4.86934764 13.50188789 -3.94390584 10.69977702 -3 7.875 C-2.4740625 6.29332031 -2.4740625 6.29332031 -1.9375 4.6796875 C-1 2 -1 2 0 0 Z " fill="#D4DDE5" transform="translate(106,576)"/>
<path d="M0 0 C3.16115776 1.36983503 3.9927092 1.9890638 6 5 C6.99 5.33 7.98 5.66 9 6 C10.3540932 7.98600337 11.68457624 9.98817543 13 12 C14.175625 13.175625 14.175625 13.175625 15.375 14.375 C22.5938726 21.5938726 26.76500615 30.04802983 31.10742188 39.16845703 C31.89358924 40.78164838 32.74481975 42.36278455 33.60546875 43.9375 C35.38041147 47.83541342 36.25299927 51.69637249 37.125 55.875 C37.29386719 56.63941406 37.46273438 57.40382813 37.63671875 58.19140625 C42.39990931 80.28210892 41.21247605 102.80135493 32.83203125 123.8359375 C32.04758052 125.87624597 31.48139035 127.8702124 31 130 C30.34 130 29.68 130 29 130 C28.92652344 130.67933594 28.85304688 131.35867188 28.77734375 132.05859375 C27.76517251 135.88856833 25.7573075 138.82352743 23.5625 142.0625 C20.52781311 146.50823643 20.52781311 146.50823643 17.953125 151.22265625 C16.72833593 153.5065867 15.1910303 154.74306136 13.1875 156.375 C10.66288605 158.50528466 8.63007506 160.44390993 6.5 163 C-9.42931931 182.11518318 -35.86862189 191.76042895 -60 194 C-74.30201441 194.70482207 -88.13228351 193.1753841 -102 189.625 C-102.77706299 189.42817627 -103.55412598 189.23135254 -104.35473633 189.02856445 C-109.6054976 187.6073185 -114.21560866 185.56507919 -119 183 C-120.33157973 182.32983761 -121.66446285 181.66224069 -123 181 C-123.28875 181.763125 -123.5775 182.52625 -123.875 183.3125 C-125 186 -125 186 -127 189 C-127.66 189 -128.32 189 -129 189 C-129.28875 189.598125 -129.5775 190.19625 -129.875 190.8125 C-131 193 -131 193 -133 196 C-133.66 196 -134.32 196 -135 196 C-135 196.66 -135 197.32 -135 198 C-135.66 198 -136.32 198 -137 198 C-137 198.66 -137 199.32 -137 200 C-137.66 200 -138.32 200 -139 200 C-139.33 200.99 -139.66 201.98 -140 203 C-140.66 203 -141.32 203 -142 203 C-142.165 203.680625 -142.33 204.36125 -142.5 205.0625 C-144.68991933 209.35109203 -148.12000999 212.19509056 -152 215 C-152.66 215 -153.32 215 -154 215 C-154 215.66 -154 216.32 -154 217 C-157.46153846 220 -157.46153846 220 -160 220 C-160 220.66 -160 221.32 -160 222 C-162.35895933 223.78081333 -164.70565775 225.40451039 -167.1875 227 C-167.93765381 227.48404297 -168.68780762 227.96808594 -169.46069336 228.46679688 C-197.37074833 246 -197.37074833 246 -210 246 C-210 246.66 -210 247.32 -210 248 C-210.99902344 248.20496094 -211.99804688 248.40992188 -213.02734375 248.62109375 C-214.31769531 248.89050781 -215.60804688 249.15992188 -216.9375 249.4375 C-218.22527344 249.70433594 -219.51304687 249.97117187 -220.83984375 250.24609375 C-223.84638879 250.67181616 -223.84638879 250.67181616 -225 252 C-246.01255956 257.0629513 -270.81716196 256.96605084 -292 253 C-292.69673828 252.8870459 -293.39347656 252.7740918 -294.11132812 252.65771484 C-314.46861668 249.35474035 -333.18490887 241.19760389 -351 231 C-351.97710937 230.46117187 -352.95421875 229.92234375 -353.9609375 229.3671875 C-354.63382812 228.91601562 -355.30671875 228.46484375 -356 228 C-356 227.34 -356 226.68 -356 226 C-357.32 225.67 -358.64 225.34 -360 225 C-360 224.34 -360 223.68 -360 223 C-361.051875 222.62875 -361.051875 222.62875 -362.125 222.25 C-365.39514548 220.82819762 -368.141122 219.12753712 -371 217 C-371 216.34 -371 215.68 -371 215 C-371.57234375 214.731875 -372.1446875 214.46375 -372.734375 214.1875 C-375.07884634 212.95867364 -377.12404938 211.57477824 -379.25 210 C-379.95640625 209.484375 -380.6628125 208.96875 -381.390625 208.4375 C-381.92171875 207.963125 -382.4528125 207.48875 -383 207 C-383 206.34 -383 205.68 -383 205 C-383.66 205 -384.32 205 -385 205 C-385.33 204.01 -385.66 203.02 -386 202 C-387.66215268 200.66104368 -389.32963607 199.32869858 -391 198 C-396 192.72899729 -396 192.72899729 -396 190 C-396.66 190 -397.32 190 -398 190 C-401.22265625 184.7265625 -401.22265625 184.7265625 -402 183 C-401.505 182.01 -401.505 182.01 -401 181 C-400.05253906 181.99966797 -400.05253906 181.99966797 -399.0859375 183.01953125 C-377.05200378 205.72019783 -350.34948574 221.38040552 -320 230 C-318.90945313 230.31839844 -317.81890625 230.63679687 -316.6953125 230.96484375 C-276.64715696 241.87226823 -230.76555681 234.89018036 -194.90625 214.6015625 C-192 213 -192 213 -189 212 C-187.99858657 211.00141543 -186.998793 210.00120554 -186 209 C-184.39148708 207.99397885 -182.76394328 207.01814497 -181.125 206.0625 C-175.53280191 202.59817434 -170.93435259 198.47699305 -166.24072266 193.91235352 C-162.18821956 190 -162.18821956 190 -160 190 C-160 189.34 -160 188.68 -160 188 C-159.34 188 -158.68 188 -158 188 C-158 187.34 -158 186.68 -158 186 C-156.88794749 184.85319585 -155.76839 183.71310731 -154.62109375 182.6015625 C-148.28221304 176.33905385 -143.30177582 169.80511598 -139 162 C-135.75250963 162.54776946 -133.18233954 163.2688859 -130.3125 164.875 C-125.70495507 167.26505608 -120.99182104 168.63591301 -116 170 C-114.61361328 170.40412109 -114.61361328 170.40412109 -113.19921875 170.81640625 C-94.98230546 176.03203703 -73.22409215 176.30466532 -55 171 C-53.77796875 170.6596875 -52.5559375 170.319375 -51.296875 169.96875 C-35.82301025 165.25654427 -23.23470682 157.45742127 -11 147 C-10.32582031 146.42894531 -9.65164063 145.85789062 -8.95703125 145.26953125 C-1.88598342 138.73595024 4.85005877 129.69075868 9 121 C9.66 121 10.32 121 11 121 C11.144375 120.05125 11.28875 119.1025 11.4375 118.125 C12 115 12 115 13 113 C13.66 113 14.32 113 15 113 C15.12632812 112.11828125 15.25265625 111.2365625 15.3828125 110.328125 C15.95150772 107.26149004 16.7778224 104.65879642 17.875 101.75 C24.50921079 82.0894921 24.94729075 61.06758194 20 41 C19.59974609 39.35837891 19.59974609 39.35837891 19.19140625 37.68359375 C15.67543787 24.94797496 9.53742329 13.35309813 1.46875 2.94140625 C0 1 0 1 0 0 Z " fill="#5B8FA0" transform="translate(668,583)"/>
<path d="M0 0 C8.21492128 4.80495396 14.47838707 9.48587096 17.3125 18.9375 C18.53699156 28.40776983 16.44354233 36.12180664 11.03125 43.921875 C8.45966095 46.93764761 5.88506104 48.2523297 2.3125 49.9375 C1.3225 50.5975 0.3325 51.2575 -0.6875 51.9375 C-9.71771796 52.97734328 -18.29535832 52.74943748 -25.6875 46.9375 C-28.36239859 44.13284887 -30.62333099 41.21554113 -32.6875 37.9375 C-33.0690625 37.35355469 -33.450625 36.76960937 -33.84375 36.16796875 C-36.31239152 29.64206917 -35.81877758 20.38294995 -33.66015625 13.80859375 C-30.31949704 7.74728687 -25.71133258 4.17941717 -19.6875 0.9375 C-19.05714844 0.56238281 -18.42679687 0.18726563 -17.77734375 -0.19921875 C-12.32244764 -2.45254967 -5.52459691 -1.59183301 0 0 Z " fill="#341C33" transform="translate(297.6875,570.0625)"/>
<path d="M0 0 C5.61210674 3.72352015 9.59906801 8.37410375 11.58203125 14.921875 C13.1838081 22.88584962 11.94249744 29.93347681 8 37 C3.77698335 42.89421045 -0.70828779 47.5029405 -8 49 C-15.95143123 49.71119839 -23.09211939 49.27858349 -30 45 C-35.40258452 40.20902882 -39.96188146 34.35427429 -40.43359375 26.94140625 C-40.45067203 25.48187017 -40.45169561 24.02206697 -40.4375 22.5625 C-40.4674707 21.47485352 -40.4674707 21.47485352 -40.49804688 20.36523438 C-40.49191991 13.54592312 -38.16743293 9.38973374 -33.5625 4.3125 C-23.13493111 -5.09774509 -12.58481152 -6.83175483 0 0 Z " fill="#331B33" transform="translate(508,573)"/>
<path d="M0 0 C3.13133101 -0.51123772 5.88256533 -0.6584022 9 0 C11.10461787 1.80764725 12.63276591 3.76015128 14.31640625 5.9609375 C18.59279655 11.14023155 25.46517262 13.6052011 32.0078125 14.3359375 C41.05022811 14.44925098 50.17661349 13.36247528 57.5 7.5625 C60.05900176 5.08392834 60.05900176 5.08392834 61.9375 2.1875 C64 0 64 0 67.5 -0.5 C72.7027027 0.24324324 72.7027027 0.24324324 75 3 C75.6875 5.6875 75.6875 5.6875 75 9 C72.1597612 13.15049223 68.95557655 16.37519995 64.75 19.125 C60.88810009 23.16244081 60.66973203 27.19485093 59.72265625 32.59375 C58.83441511 36.7804866 57.4102289 39.50932367 55 43 C54.34 43 53.68 43 53 43 C53 43.66 53 44.32 53 45 C51.41925436 45.81752303 49.83528777 46.62881997 48.25 47.4375 C47.36828125 47.88996094 46.4865625 48.34242188 45.578125 48.80859375 C39.02289573 51.83790425 32.70888488 51.83958047 25.9375 49.5 C19.83924832 46.82615119 15.7906495 42.78613344 12.94140625 36.76171875 C11.61047109 33.0745826 10.97624915 29.90591392 10.9375 26 C10.57333836 21.75709351 8.23708566 20.03726386 5.125 17.3125 C3.79855469 16.25482422 3.79855469 16.25482422 2.4453125 15.17578125 C-0.07902106 12.92968893 -1.55185975 11.04255729 -3 8 C-2.6875 4.6875 -2.6875 4.6875 -2 2 C-1.34 2 -0.68 2 0 2 C0 1.34 0 0.68 0 0 Z " fill="#3A1F38" transform="translate(355,637)"/>
<path d="M0 0 C1.37890625 1.3203125 1.37890625 1.3203125 3.12890625 3.6328125 C3.12890625 4.2928125 3.12890625 4.9528125 3.12890625 5.6328125 C3.78890625 5.6328125 4.44890625 5.6328125 5.12890625 5.6328125 C5.62253259 10.56907592 5.74832275 13.66725149 3.00390625 17.9453125 C-4.66285112 25.11206396 -13.45140443 28.04649558 -23.87109375 28.6328125 C-25.02351563 28.70886719 -26.1759375 28.78492188 -27.36328125 28.86328125 C-40.16026542 29.44018141 -53.70034205 26.93546695 -63.87109375 18.6328125 C-64.87109375 15.8203125 -64.87109375 15.8203125 -64.87109375 13.6328125 C-65.53109375 13.6328125 -66.19109375 13.6328125 -66.87109375 13.6328125 C-67.37239981 8.36909888 -66.18278004 5.7237191 -62.87109375 1.6328125 C-62.21109375 1.6328125 -61.55109375 1.6328125 -60.87109375 1.6328125 C-60.87109375 0.9728125 -60.87109375 0.3128125 -60.87109375 -0.3671875 C-43.63058189 -11.23620585 -16.97966574 -12.40685388 0 0 Z " fill="#F2AEAC" transform="translate(303.87109375,642.3671875)"/>
<path d="M0 0 C2.88382876 4.14550384 2.60846649 7.96380623 2 12.875 C1.67 13.535 1.34 14.195 1 14.875 C0.34 14.875 -0.32 14.875 -1 14.875 C-1 15.535 -1 16.195 -1 16.875 C-2.64453125 18.1640625 -2.64453125 18.1640625 -4.8125 19.5 C-5.52019531 19.94601562 -6.22789062 20.39203125 -6.95703125 20.8515625 C-9 21.875 -9 21.875 -12 21.875 C-12 22.535 -12 23.195 -12 23.875 C-28.33484581 28.10343466 -44.57047312 28.92165741 -60 21.0625 C-64.38950364 18.45442996 -67.42375695 16.31679836 -70 11.875 C-70.70337258 7.84659341 -70.83788669 5.63820504 -69.1015625 1.984375 C-63.62166419 -5.65427113 -53.46361498 -7.85174955 -44.6875 -9.5 C-29.10860038 -11.47797395 -12.97670783 -9.19183471 0 0 Z " fill="#F2ADAA" transform="translate(542,644.125)"/>
<path d="M0 0 C3.42414756 1.14138252 4.43327424 2.65209408 6.62988281 5.39990234 C15.99985536 16.34266785 32.53021336 25.52959255 46 30 C47.17820313 30.40863281 48.35640625 30.81726563 49.5703125 31.23828125 C71.75848111 38.7219466 98.6602558 42.30692246 121.25 34.3125 C126.07644841 32.62324306 126.07644841 32.62324306 129 34 C130.82500757 36.09313664 132.44936951 38.13064454 134.0625 40.375 C137.7157429 45.45750105 137.7157429 45.45750105 142 50 C141.67 50.66 141.34 51.32 141 52 C138.30812281 52.78822923 135.67098405 53.45786896 132.9375 54.0625 C132.19822266 54.23587891 131.45894531 54.40925781 130.69726562 54.58789062 C114.54275409 58.27671609 97.41510079 58.12003277 81.0625 55.75 C80.2777832 55.64075195 79.49306641 55.53150391 78.68457031 55.41894531 C73.7445948 54.61081707 69.58767616 53.07434061 65.06860352 50.94042969 C62.42271215 49.73755307 59.75159674 48.96242955 56.9375 48.25 C55.99777344 48.00765625 55.05804688 47.7653125 54.08984375 47.515625 C53.40019531 47.34546875 52.71054688 47.1753125 52 47 C52 46.34 52 45.68 52 45 C51.32195312 44.9175 50.64390625 44.835 49.9453125 44.75 C46.18848045 43.79335311 43.14966082 42.00483455 39.875 40 C39.21991455 39.60208252 38.5648291 39.20416504 37.88989258 38.79418945 C21.75805322 28.78084907 21.75805322 28.78084907 19 22 C18.01 22 17.02 22 16 22 C16 21.01 16 20.02 16 19 C15.15115234 18.93232422 15.15115234 18.93232422 14.28515625 18.86328125 C10.83500404 17.55989041 9.55625367 15.15232112 7.4375 12.1875 C6.67308594 11.12917969 5.90867188 10.07085938 5.12109375 8.98046875 C4.42113281 7.99691406 3.72117187 7.01335938 3 6 C2.12021484 4.88044922 2.12021484 4.88044922 1.22265625 3.73828125 C0 2 0 2 0 0 Z " fill="#5A8EA0" transform="translate(124,712)"/>
<path d="M0 0 C7.48268654 5.01937788 15.90088009 11.90861707 17.98828125 20.99609375 C18.1484375 24.33984375 18.1484375 24.33984375 16.5859375 27.27734375 C14.1484375 29.33984375 14.1484375 29.33984375 11.2734375 30.08984375 C6.0433914 28.83463269 3.86093449 24.66746178 0.7890625 20.4921875 C-3.86432927 14.54473453 -9.76463167 11.70215403 -16.8515625 9.33984375 C-26.35203889 8.62321299 -33.90940314 8.61783141 -42.4765625 13.21484375 C-46.18992065 14.97380288 -48.81354795 14.92719132 -52.8515625 14.33984375 C-55.3615597 10.57484794 -55.46632994 8.79690769 -54.8515625 4.33984375 C-42.23870768 -9.93259723 -15.08817629 -8.78421222 0 0 Z " fill="#392038" transform="translate(522.8515625,513.66015625)"/>
<path d="M0 0 C1.52491998 3.04983996 1.23562548 5.6423369 1 9 C-0.0625 10.9375 -0.0625 10.9375 -2 12 C-7.91750681 12.96612356 -11.59574545 10.87959066 -16.65234375 8.1796875 C-19.48748482 6.7550409 -21.83620718 6.20633431 -25 6 C-26.175625 5.87625 -27.35125 5.7525 -28.5625 5.625 C-38.29262832 5.79276083 -48.29893865 11.1535794 -55 18 C-56.56311364 20.26903593 -57.74359385 22.53551101 -59 25 C-62.47042703 27.31361802 -63.91834173 27.51020728 -68 27 C-70.63438549 24.80467876 -70.96651717 23.17076242 -71.625 19.8125 C-70.18044798 11.00073269 -61.87262405 4.1657717 -55 -1 C-37.49108643 -12.08705876 -17.11067135 -11.52482366 0 0 Z " fill="#372037" transform="translate(313,516)"/>
<path d="M0 0 C0.49628906 0.26554688 0.99257813 0.53109375 1.50390625 0.8046875 C2.52291016 1.33449219 2.52291016 1.33449219 3.5625 1.875 C4.55443359 2.39707031 4.55443359 2.39707031 5.56640625 2.9296875 C11.86759875 5.70099849 17.60065386 6.3395541 24.375 6.3125 C25.17421875 6.32861328 25.9734375 6.34472656 26.796875 6.36132812 C32.72561641 6.36612484 37.48426911 5.07130542 43 3 C45.32398253 2.29400044 47.65883354 1.64755668 50 1 C49.81895467 8.73557339 47.85167232 14.3199779 44 21 C43.34 21 42.68 21 42 21 C42 21.66 42 22.32 42 23 C40.41925436 23.81752303 38.83528777 24.62881997 37.25 25.4375 C36.36828125 25.88996094 35.4865625 26.34242188 34.578125 26.80859375 C28.02289573 29.83790425 21.70888488 29.83958047 14.9375 27.5 C8.81049807 24.81354531 4.83887808 20.76313264 1.90625 14.76171875 C0.03546449 9.74697425 -0.29008105 5.31815251 0 0 Z " fill="#E64C56" transform="translate(366,659)"/>
<path d="M0 0 C4.94532499 2.51931651 7.33767255 4.03838975 10 9 C10.7425 9.7425 11.485 10.485 12.25 11.25 C21.49943227 20.49943227 29.00457603 31.91888733 31 45 C31.66 45 32.32 45 33 45 C33.50546036 47.08201528 34.00416835 49.16567067 34.5 51.25 C34.7784375 52.41015625 35.056875 53.5703125 35.34375 54.765625 C36 58 36 58 36 62 C31.30858495 61.43379473 26.65934325 60.79435795 22 60 C21.91024902 59.41734375 21.82049805 58.8346875 21.72802734 58.234375 C18.41607196 37.24903377 12.7074349 19.32832031 0 2 C0 1.34 0 0.68 0 0 Z " fill="#5C8EA0" transform="translate(582,486)"/>
<path d="M0 0 C8.10780446 4.74230072 14.56898162 9.52439384 17.3125 18.9375 C16.9296875 21.23828125 16.9296875 21.23828125 16.3125 22.9375 C15.8175 21.9475 15.8175 21.9475 15.3125 20.9375 C14.3225 21.4325 14.3225 21.4325 13.3125 21.9375 C13.02375 20.968125 12.735 19.99875 12.4375 19 C11.67035318 15.83085797 11.67035318 15.83085797 9.3125 14.9375 C9.3125 15.5975 9.3125 16.2575 9.3125 16.9375 C8.6525 16.9375 7.9925 16.9375 7.3125 16.9375 C6.3225 19.4125 6.3225 19.4125 5.3125 21.9375 C-2.73351861 23.51919597 -2.73351861 23.51919597 -6.25 21.375 C-8.07644679 18.27798152 -8.13089919 16.48469353 -7.6875 12.9375 C-6.6875 10.5625 -6.6875 10.5625 -5.6875 8.9375 C-7.0075 8.2775 -8.3275 7.6175 -9.6875 6.9375 C-9.6875 6.2775 -9.6875 5.6175 -9.6875 4.9375 C-11.9975 4.6075 -14.3075 4.2775 -16.6875 3.9375 C-17.0175 2.6175 -17.3475 1.2975 -17.6875 -0.0625 C-12.59228949 -2.61010525 -5.2793142 -1.52115833 0 0 Z " fill="#351F35" transform="translate(297.6875,570.0625)"/>
<path d="M0 0 C0.66 -0.33 1.32 -0.66 2 -1 C1.93981983 1.25073828 1.85098794 3.50072325 1.75 5.75 C1.68039062 7.62945313 1.68039062 7.62945313 1.609375 9.546875 C1 13 1 13 -0.73046875 15.4375 C-3.44559039 17.30677479 -4.80383509 17.42694108 -8.0625 17.25 C-8.91972656 17.21390625 -9.77695312 17.1778125 -10.66015625 17.140625 C-11.81837891 17.07101562 -11.81837891 17.07101562 -13 17 C-13.99 17 -14.98 17 -16 17 C-16.66 17 -17.32 17 -18 17 C-17.91297874 14.72844502 -17.80480478 12.45769257 -17.6875 10.1875 C-17.62949219 8.92292969 -17.57148437 7.65835937 -17.51171875 6.35546875 C-17 3 -17 3 -15.64453125 1.11328125 C-10.86985125 -2.11898431 -5.30888571 -1.37637778 0 0 Z " fill="#80B5C9" transform="translate(726,1135)"/>
<path d="M0 0 C3.35694984 2.48122379 4.78441871 3.94365169 5.625 8.0625 C5 11 5 11 2.875 13.375 C-0.45194517 15.25544727 -2.23734571 15.49078099 -6 15 C-9 13 -9 13 -9.65234375 10.9765625 C-10.41567367 4.68170482 -10.41567367 4.68170482 -8.4375 1.4375 C-5.25482397 -0.43946279 -3.64050628 -0.66866442 0 0 Z " fill="#F5F3F5" transform="translate(505,578)"/>
<path d="M0 0 C3.5 0.625 3.5 0.625 5.9375 2.75 C7.74233021 6.07088758 7.9858395 7.90023051 7.5 11.625 C5.5 14.625 5.5 14.625 3.4765625 15.27734375 C-2.81829518 16.04067367 -2.81829518 16.04067367 -6.0625 14.0625 C-7.92495284 10.9044278 -8.09040173 9.24121062 -7.5 5.625 C-5.39427076 1.7504582 -4.38276659 0.78263689 0 0 Z " fill="#F8F7F8" transform="translate(297.5,577.375)"/>
<path d="M0 0 C2 2 2 2 2 5 C2.99 4.34 3.98 3.68 5 3 C6.32 3 7.64 3 9 3 C9 3.66 9 4.32 9 5 C8.01 5 7.02 5 6 5 C6 7.31 6 9.62 6 12 C5.01 12 4.02 12 3 12 C2.67 11.01 2.34 10.02 2 9 C1.34 10.32 0.68 11.64 0 13 C-2.75 13.3125 -2.75 13.3125 -6 13 C-8.4375 10.9375 -8.4375 10.9375 -10 8 C-9.875 4.25 -9.875 4.25 -9 1 C-5.98675805 -0.50662097 -3.31713623 -0.17770373 0 0 Z " fill="#83B5C5" transform="translate(743,1137)"/>
<path d="M0 0 C5.42285579 3.76587208 8.7385089 8.43534731 10 15 C10.11465924 16.66389221 10.17478819 18.33221031 10.1875 20 C10.20167969 20.845625 10.21585938 21.69125 10.23046875 22.5625 C9.98543096 25.15408616 9.30584901 26.77024992 8 29 C6.68 29 5.36 29 4 29 C4.50603992 26.83125748 4.99983813 25.00032373 6 23 C6.66 23 7.32 23 8 23 C7.67 20.36 7.34 17.72 7 15 C5.88625 15.2784375 5.88625 15.2784375 4.75 15.5625 C2.05009037 15.99203108 0.55368923 15.85122974 -2 15 C-1.67 14.67 -1.34 14.34 -1 14 C-0.85363946 10.63370749 -0.92806521 8.21580438 -2 5 C-1.34 4.34 -0.68 3.68 0 3 C0 2.01 0 1.02 0 0 Z " fill="#3B273B" transform="translate(510,575)"/>
<path d="M0 0 C-0.18104533 7.73557339 -2.14832768 13.3199779 -6 20 C-6.66 20 -7.32 20 -8 20 C-8.042721 18.33388095 -8.04063832 16.66617115 -8 15 C-7.67 14.67 -7.34 14.34 -7 14 C-7.08984301 12.14227838 -7.24611861 10.28752015 -7.4375 8.4375 C-7.53933594 7.42558594 -7.64117187 6.41367187 -7.74609375 5.37109375 C-7.82988281 4.58863281 -7.91367187 3.80617188 -8 3 C-2.25 0 -2.25 0 0 0 Z " fill="#E0565E" transform="translate(416,660)"/>
<path d="M0 0 C0 1.66666667 0 3.33333333 0 5 C0.66 5.66 1.32 6.32 2 7 C-3.19556423 10.31938826 -6.85325147 11.14908282 -13 11.1875 C-14.03125 11.20167969 -15.0625 11.21585938 -16.125 11.23046875 C-18.96545203 11.00276947 -20.59107948 10.46504061 -23 9 C-22.34 9 -21.68 9 -21 9 C-20.67 8.34 -20.34 7.68 -20 7 C-18.88625 7.20625 -17.7725 7.4125 -16.625 7.625 C-15.42875 7.74875 -14.2325 7.8725 -13 8 C-12.34 7.34 -11.68 6.68 -11 6 C-10.34 6 -9.68 6 -9 6 C-8.01 5.67 -7.02 5.34 -6 5 C-5.01 5 -4.02 5 -3 5 C-1.28288757 2.55503957 -1.28288757 2.55503957 0 0 Z " fill="#39233A" transform="translate(507,611)"/>
<path d="M0 0 C0.66 1.32 1.32 2.64 2 4 C1.01 4 0.02 4 -1 4 C-1 3.34 -1 2.68 -1 2 C-2.98 2 -4.96 2 -7 2 C-7 4.64 -7 7.28 -7 10 C-4.02934491 9.65772428 -4.02934491 9.65772428 -1 9 C-0.67 8.34 -0.34 7.68 0 7 C-0.99 6.67 -1.98 6.34 -3 6 C-1.35 6 0.3 6 2 6 C1.125 10.75 1.125 10.75 0 13 C-2.75 13.3125 -2.75 13.3125 -6 13 C-8.4375 10.9375 -8.4375 10.9375 -10 8 C-9.875 4.25 -9.875 4.25 -9 1 C-6.04335481 -0.4783226 -3.25770263 -0.06032783 0 0 Z " fill="#9BC4D0" transform="translate(743,1137)"/>
<path d="M0 0 C2.875 -0.125 2.875 -0.125 6 0 C6.66 0.66 7.32 1.32 8 2 C6.500823 2.31642465 5.00059887 2.62788849 3.5 2.9375 C2.6646875 3.11152344 1.829375 3.28554688 0.96875 3.46484375 C-6.27258453 4.77018958 -13.21851947 5.15645174 -20.5625 5.125 C-21.46935547 5.12886719 -22.37621094 5.13273438 -23.31054688 5.13671875 C-28.31506467 5.12946057 -33.06745305 4.85253898 -38 4 C-38 3.67 -38 3.34 -38 3 C-36.76507813 3.02320313 -35.53015625 3.04640625 -34.2578125 3.0703125 C-22.6786274 3.21752502 -11.4731208 2.55191972 0 1 C0 0.67 0 0.34 0 0 Z " fill="#C8E1EC" transform="translate(234,746)"/>
<path d="M0 0 C0.33 0.66 0.66 1.32 1 2 C1.99 2.33 2.98 2.66 4 3 C4 4.65 4 6.3 4 8 C1.36 8.66 -1.28 9.32 -4 10 C-4 10.66 -4 11.32 -4 12 C-4.99 11.67 -5.98 11.34 -7 11 C-7 8.69 -7 6.38 -7 4 C-6.1028125 3.566875 -6.1028125 3.566875 -5.1875 3.125 C-2.80672208 1.95257974 -2.80672208 1.95257974 0 0 Z " fill="#2D132A" transform="translate(475,514)"/>
<path d="M0 0 C2.5 0.25 2.5 0.25 4.5 2.25 C4.125 5.875 4.125 5.875 3.5 9.25 C1.19 9.25 -1.12 9.25 -3.5 9.25 C-4.125 5.875 -4.125 5.875 -4.5 2.25 C-2.5 0.25 -2.5 0.25 0 0 Z " fill="#98C2D0" transform="translate(756.5,1139.75)"/>
<path d="M0 0 C-1.07269791 2.59235327 -1.83166926 3.8762274 -4.125 5.5625 C-5.053125 6.2740625 -5.053125 6.2740625 -6 7 C-6 7.99 -6 8.98 -6 10 C-7.65 9.67 -9.3 9.34 -11 9 C-10.4140625 2.84765625 -10.4140625 2.84765625 -10 1 C-6.78548731 -0.60725635 -3.56387464 -0.05748185 0 0 Z " fill="#7EB1C5" transform="translate(722,1137)"/>
<path d="M0 0 C1.37953259 2.75906519 1.01120699 4.80816377 0.8125 7.875 C0.75707031 8.92429687 0.70164062 9.97359375 0.64453125 11.0546875 C-0.13339327 14.60956683 -1.0725207 15.87184983 -4 18 C-6.359375 18.390625 -6.359375 18.390625 -8.75 18.25 C-9.54921875 18.21390625 -10.3484375 18.1778125 -11.171875 18.140625 C-12.07679688 18.07101562 -12.07679688 18.07101562 -13 18 C-13 17.34 -13 16.68 -13 16 C-10.98177083 15.57682292 -8.96354167 15.15364583 -6.9453125 14.73046875 C-4.62953451 14.07691162 -4.62953451 14.07691162 -3 11 C-2.61500109 9.34450469 -2.27206865 7.6777567 -2 6 C-2.66 6 -3.32 6 -4 6 C-4 5.34 -4 4.68 -4 4 C-3.34 4 -2.68 4 -2 4 C-1.34 2.68 -0.68 1.36 0 0 Z " fill="#A1C7D3" transform="translate(727,1134)"/>
<path d="M0 0 C0.66 0 1.32 0 2 0 C2.33 1.65 2.66 3.3 3 5 C3.33 4.34 3.66 3.68 4 3 C5.32 3 6.64 3 8 3 C7 6 7 6 5 8 C5.66 9.32 6.32 10.64 7 12 C5 12 5 12 3.375 10.5 C2.92125 10.005 2.4675 9.51 2 9 C2 9.99 2 10.98 2 12 C1.01 12 0.02 12 -1 12 C-1.02687279 10.18757948 -1.04633715 8.37504767 -1.0625 6.5625 C-1.07410156 5.55316406 -1.08570313 4.54382812 -1.09765625 3.50390625 C-1 1 -1 1 0 0 Z " fill="#97C2D2" transform="translate(763,1137)"/>
<path d="M0 0 C1.58206057 0.00667536 3.16410534 0.0186375 4.74609375 0.03515625 C5.55240234 0.03966797 6.35871094 0.04417969 7.18945312 0.04882812 C9.18753131 0.06065107 11.18557158 0.07858711 13.18359375 0.09765625 C3.40722633 5.34997103 -10.18195949 5.62966738 -20.81640625 3.09765625 C-20.81640625 2.76765625 -20.81640625 2.43765625 -20.81640625 2.09765625 C-19.67300781 2.03707031 -18.52960938 1.97648438 -17.3515625 1.9140625 C-15.8606632 1.82967197 -14.3697785 1.74502323 -12.87890625 1.66015625 C-12.12416016 1.62083984 -11.36941406 1.58152344 -10.59179688 1.54101562 C-6.64365809 1.31085507 -3.79030717 0.09698841 0 0 Z " fill="#ECBEBC" transform="translate(516.81640625,666.90234375)"/>
<path d="M0 0 C0.66 0.33 1.32 0.66 2 1 C1.40140845 7.34507042 1.40140845 7.34507042 -0.1875 9.9375 C-2.80642619 11.47273259 -5.02914805 11.1980568 -8 11 C-8.33 10.34 -8.66 9.68 -9 9 C-8.67 8.34 -8.34 7.68 -8 7 C-6.68 7 -5.36 7 -4 7 C-3.67 6.01 -3.34 5.02 -3 4 C-2.03126968 2.64377755 -1.03565785 1.30582947 0 0 Z " fill="#362133" transform="translate(539,532)"/>
<path d="M0 0 C0 0.66 0 1.32 0 2 C-10.56902466 4.16800506 -21.69044905 5.92448163 -32 2 C-32 1.67 -32 1.34 -32 1 C-31.2886792 1.00523682 -30.5773584 1.01047363 -29.84448242 1.01586914 C-26.62549725 1.03664018 -23.40652617 1.04966058 -20.1875 1.0625 C-19.06794922 1.07087891 -17.94839844 1.07925781 -16.79492188 1.08789062 C-15.72177734 1.09111328 -14.64863281 1.09433594 -13.54296875 1.09765625 C-12.55321045 1.10289307 -11.56345215 1.10812988 -10.54370117 1.11352539 C-6.87514925 0.94979791 -3.75794438 -0.10156606 0 0 Z " fill="#CE5060" transform="translate(408,664)"/>
<path d="M0 0 C0.33 0 0.66 0 1 0 C1.49362634 4.93626342 1.6194165 8.03443899 -1.125 12.3125 C-6.62491232 17.45372239 -10.51189148 19.75039638 -18 20 C-18.66 19.34 -19.32 18.68 -20 18 C-14.555 17.01 -14.555 17.01 -9 16 C-8.67 15.01 -8.34 14.02 -8 13 C-6.68 13 -5.36 13 -4 13 C-3.34 11.02 -2.68 9.04 -2 7 C-1.67 7 -1.34 7 -1 7 C-0.67 4.69 -0.34 2.38 0 0 Z " fill="#E9B8B7" transform="translate(308,648)"/>
<path d="M0 0 C3.42347783 1.14115928 4.35203101 2.61312182 6.52734375 5.3671875 C8.99692745 8.10534662 11.94117264 9.96078176 15 12 C14.67 12.99 14.34 13.98 14 15 C13.67 15 13.34 15 13 15 C13.33 15.66 13.66 16.32 14 17 C10.43399655 15.54224914 8.71781116 13.69602309 6.4375 10.625 C5.56931641 9.46871094 5.56931641 9.46871094 4.68359375 8.2890625 C3.85021484 7.15597656 3.85021484 7.15597656 3 6 C2.15115234 4.92878906 2.15115234 4.92878906 1.28515625 3.8359375 C0 2 0 2 0 0 Z " fill="#598899" transform="translate(124,712)"/>
<path d="M0 0 C4.21814817 3.9700218 7.61227103 8.30840284 11 13 C7.61682513 13.97591583 5.4342662 13.85856655 2 13 C2.04125 11.96875 2.0825 10.9375 2.125 9.875 C2.00424851 6.13170373 1.35127982 3.46265453 0 0 Z " fill="#EEF6F7" transform="translate(663,578)"/>
<path d="M0 0 C0.33 0.66 0.66 1.32 1 2 C0.34 2 -0.32 2 -1 2 C-1 2.66 -1 3.32 -1 4 C0.32 4 1.64 4 3 4 C2.67 2.68 2.34 1.36 2 0 C2.66 0.33 3.32 0.66 4 1 C4.1875 4.375 4.1875 4.375 4 8 C3.01 8.66 2.02 9.32 1 10 C0.67 9.34 0.34 8.68 0 8 C-0.66 8.66 -1.32 9.32 -2 10 C-3.65 8.35 -5.3 6.7 -7 5 C-5.73223544 2.46447088 -4.53176935 2.15080425 -2 1 C-1.34 0.67 -0.68 0.34 0 0 Z " fill="#31162F" transform="translate(310,517)"/>
<path d="M0 0 C11.64291751 9.76394523 11.64291751 9.76394523 12.8125 13.8125 C12.874375 14.534375 12.93625 15.25625 13 16 C10.13302508 14.71480435 8.02392288 13.42870746 6 11 C6 10.34 6 9.68 6 9 C5.34 9 4.68 9 4 9 C0 2.25 0 2.25 0 0 Z " fill="#558899" transform="translate(266,764)"/>
<path d="M0 0 C0 0.66 0 1.32 0 2 C-3.3 2.66 -6.6 3.32 -10 4 C-10 7.63 -10 11.26 -10 15 C-10.66 15 -11.32 15 -12 15 C-13.16343227 12.67313547 -13.19895988 11.15278587 -13.25 8.5625 C-13.28867187 7.38880859 -13.28867187 7.38880859 -13.328125 6.19140625 C-12.91962728 3.46322502 -12.16727539 2.6558389 -10 1 C-6.52674819 -0.1577506 -3.63932552 -0.06866652 0 0 Z " fill="#A1C7D5" transform="translate(722,1134)"/>
<path d="M0 0 C0 0.33 0 0.66 0 1 C-2.64 1.33 -5.28 1.66 -8 2 C-8 1.34 -8 0.68 -8 0 C-15.92 -0.33 -23.84 -0.66 -32 -1 C-32 -1.33 -32 -1.66 -32 -2 C-21.66323667 -3.93814312 -10.02729126 -3.13352852 0 0 Z " fill="#E6B9B8" transform="translate(528,637)"/>
<path d="M0 0 C0 0.66 0 1.32 0 2 C0.99 2.33 1.98 2.66 3 3 C1.91796875 4.58203125 1.91796875 4.58203125 0 6 C-3.13671875 5.63671875 -3.13671875 5.63671875 -6.6875 4.6875 C-7.86699219 4.38199219 -9.04648437 4.07648437 -10.26171875 3.76171875 C-11.16535156 3.51035156 -12.06898438 3.25898437 -13 3 C-12.37996094 2.69449219 -11.75992187 2.38898437 -11.12109375 2.07421875 C-8.99997523 1.03595494 -8.99997523 1.03595494 -7.0625 -0.1875 C-4.38201174 -1.24344992 -2.72832067 -0.75786685 0 0 Z " fill="#F7F8F7" transform="translate(429,633)"/>
<path d="M0 0 C0.66 0.33 1.32 0.66 2 1 C2.3125 3.6875 2.3125 3.6875 2 7 C-0.5 9.875 -0.5 9.875 -3 12 C-3 11.01 -3 10.02 -3 9 C-3.99 8.67 -4.98 8.34 -6 8 C-5.34 8 -4.68 8 -4 8 C-3.8453125 7.13375 -3.8453125 7.13375 -3.6875 6.25 C-2.90207202 3.67950842 -1.69495803 2.06342716 0 0 Z " fill="#422D42" transform="translate(428,639)"/>
<path d="M0 0 C0.66 1.32 1.32 2.64 2 4 C-0.21928194 6.90802461 -1.92969143 8.95312762 -5 11 C-5.66 11.99 -6.32 12.98 -7 14 C-6.96591928 6.17847534 -6.96591928 6.17847534 -4.59765625 3.2890625 C-2.9375 1.9375 -2.9375 1.9375 0 0 Z " fill="#F2E8EB" transform="translate(422,654)"/>
<path d="M0 0 C-0.75 5.75 -0.75 5.75 -3 8 C-5.68839385 8.26991906 -8.29141936 8.08737357 -11 8 C-10.34 7.54625 -9.68 7.0925 -9 6.625 C-8.34 6.08875 -7.68 5.5525 -7 5 C-7 4.34 -7 3.68 -7 3 C-6.34 3 -5.68 3 -5 3 C-5 2.34 -5 1.68 -5 1 C-3 0 -3 0 0 0 Z " fill="#7DB2C4" transform="translate(725,1141)"/>
<path d="M0 0 C2.71631546 0.90543849 5.34771188 1.92474806 8 3 C5.57869669 5.42130331 4.19888623 5.52840504 0.875 6.125 C-0.03507812 6.29257812 -0.94515625 6.46015625 -1.8828125 6.6328125 C-2.58148438 6.75398437 -3.28015625 6.87515625 -4 7 C-3.39816251 4.97954558 -2.72693904 2.97888961 -2 1 C-1.34 0.67 -0.68 0.34 0 0 Z " fill="#C7DAE4" transform="translate(434,808)"/>
<path d="M0 0 C0 3.54404336 -0.60989485 4.10267905 -2.875 6.6875 C-3.40867188 7.31011719 -3.94234375 7.93273437 -4.4921875 8.57421875 C-6 10 -6 10 -8 10 C-8 10.66 -8 11.32 -8 12 C-9.65 12.33 -11.3 12.66 -13 13 C-12.04882866 11.8274869 -11.08882991 10.66212985 -10.125 9.5 C-9.59132812 8.8503125 -9.05765625 8.200625 -8.5078125 7.53125 C-8.01023438 7.0259375 -7.51265625 6.520625 -7 6 C-6.34 6 -5.68 6 -5 6 C-5 5.34 -5 4.68 -5 4 C-3.37373596 2.61767557 -1.7074998 1.28062485 0 0 Z " fill="#E5F3F5" transform="translate(242,408)"/>
<path d="M0 0 C1.0725 0.103125 2.145 0.20625 3.25 0.3125 C1.1114515 2.4510485 0.11724686 2.73905063 -2.75 3.3125 C-2.87375 3.951875 -2.9975 4.59125 -3.125 5.25 C-3.33125 5.930625 -3.5375 6.61125 -3.75 7.3125 C-4.74 7.8075 -4.74 7.8075 -5.75 8.3125 C-6.41 9.3025 -7.07 10.2925 -7.75 11.3125 C-8.08975517 7.66013197 -7.95830209 5.69577585 -6.1875 2.4375 C-3.75 0.3125 -3.75 0.3125 0 0 Z " fill="#E8E3EA" transform="translate(297.75,577.6875)"/>
<path d="M0 0 C0.99 0.33 1.98 0.66 3 1 C1.60823368 1.96423026 0.2113777 2.92111602 -1.1875 3.875 C-1.96480469 4.40867187 -2.74210937 4.94234375 -3.54296875 5.4921875 C-5.9676609 6.98015439 -8.3333499 8.02428078 -11 9 C-11 8.01 -11 7.02 -11 6 C-10.34 6 -9.68 6 -9 6 C-8.79375 5.360625 -8.5875 4.72125 -8.375 4.0625 C-7 2 -7 2 -3.9375 1.3125 C-2.4834375 1.1578125 -2.4834375 1.1578125 -1 1 C-0.67 0.67 -0.34 0.34 0 0 Z " fill="#C9DFE9" transform="translate(475,794)"/>
<path d="M0 0 C4.29 0.33 8.58 0.66 13 1 C13 1.33 13 1.66 13 2 C10.36 2 7.72 2 5 2 C5 3.32 5 4.64 5 6 C1.31245243 5.50168276 -0.60490662 4.89932357 -3 2 C-2.01 2 -1.02 2 0 2 C0 1.34 0 0.68 0 0 Z " fill="#6E99A8" transform="translate(363,817)"/>
<path d="M0 0 C-0.350625 0.61875 -0.70125 1.2375 -1.0625 1.875 C-1.371875 2.57625 -1.68125 3.2775 -2 4 C-1.67 4.66 -1.34 5.32 -1 6 C-2.093125 5.979375 -3.18625 5.95875 -4.3125 5.9375 C-7.94384191 5.81455548 -7.94384191 5.81455548 -11 7 C-11.66 6.34 -12.32 5.68 -13 5 C-11.21046815 4.16209211 -9.41830305 3.32980604 -7.625 2.5 C-6.62726563 2.0359375 -5.62953125 1.571875 -4.6015625 1.09375 C-2 0 -2 0 0 0 Z " fill="#6D96A3" transform="translate(469,801)"/>
<path d="M0 0 C1.98 0 3.96 0 6 0 C6.0825 0.61875 6.165 1.2375 6.25 1.875 C6.81258459 4.18437567 6.81258459 4.18437567 9.0625 5.25 C9.701875 5.4975 10.34125 5.745 11 6 C11 6.66 11 7.32 11 8 C6.38486888 6.68139111 2.90102388 4.78644563 -1 2 C-0.67 1.34 -0.34 0.68 0 0 Z " fill="#C5DAE5" transform="translate(303,792)"/>
<path d="M0 0 C2 1 2 1 3 3 C0.64531545 5.72647685 -1.5408417 6.98756342 -5 8 C-6.32 7.67 -7.64 7.34 -9 7 C-6.03 4.69 -3.06 2.38 0 0 Z " fill="#6594A3" transform="translate(653,733)"/>
<path d="M0 0 C0 0.66 0 1.32 0 2 C-1.62935241 3.37868281 -3.29749607 4.71274093 -5 6 C-5.33 6.33 -5.66 6.66 -6 7 C-6.78375 7.12375 -7.5675 7.2475 -8.375 7.375 C-11.21743728 8.05177078 -12.17403191 8.78961758 -14 11 C-14.66 10.34 -15.32 9.68 -16 9 C-11.97806144 5.49702126 -5.60566856 0 0 0 Z " fill="#DFEFF3" transform="translate(156,528)"/>
<path d="M0 0 C1.09570312 0.00902344 2.19140625 0.01804687 3.3203125 0.02734375 C4.16335938 0.03894531 5.00640625 0.05054688 5.875 0.0625 C5.875 0.3925 5.875 0.7225 5.875 1.0625 C3.895 1.3925 1.915 1.7225 -0.125 2.0625 C-0.125 3.0525 -0.125 4.0425 -0.125 5.0625 C-2.435 5.0625 -4.745 5.0625 -7.125 5.0625 C-7.455 3.7425 -7.785 2.4225 -8.125 1.0625 C-5.36047967 -0.31976016 -3.0788637 -0.03275387 0 0 Z " fill="#594758" transform="translate(288.125,568.9375)"/>
<path d="M0 0 C3.33773709 3.64116773 3.97864902 7.28607242 5 12 C3.35 12 1.7 12 0 12 C0.33 10.68 0.66 9.36 1 8 C0.34 7.67 -0.32 7.34 -1 7 C-0.67 4.69 -0.34 2.38 0 0 Z " fill="#DEEDF0" transform="translate(594,508)"/>
<path d="M0 0 C1.49341969 2.98683937 0.40648676 4.95160978 -0.4375 8.125 C-0.72496094 9.22070312 -1.01242187 10.31640625 -1.30859375 11.4453125 C-1.53675781 12.28835938 -1.76492188 13.13140625 -2 14 C-4 12 -4 12 -4.375 8.125 C-4.31541346 4.84774032 -4.14649924 4.18312405 -2 1.5 C-1.34 1.005 -0.68 0.51 0 0 Z " fill="#EBB6B8" transform="translate(476,644)"/>
<path d="M0 0 C1.65 0 3.3 0 5 0 C3.6022795 2.795441 1.37337262 3.52887937 -1.28515625 4.98046875 C-3.15714972 6.0934307 -4.50620245 7.42758152 -6 9 C-6.66 9 -7.32 9 -8 9 C-7.67 7.68 -7.34 6.36 -7 5 C-6.34 5 -5.68 5 -5 5 C-5 4.34 -5 3.68 -5 3 C-3.35 2.67 -1.7 2.34 0 2 C0 1.34 0 0.68 0 0 Z " fill="#8BB3C2" transform="translate(144,531)"/>
<path d="M0 0 C2 1 2 1 3 3 C1 5 1 5 -2.625 5.125 C-3.73875 5.08375 -4.8525 5.0425 -6 5 C-6 5.66 -6 6.32 -6 7 C-8.97 6.505 -8.97 6.505 -12 6 C-11.42507813 5.71511719 -10.85015625 5.43023438 -10.2578125 5.13671875 C-8.80655238 4.40606703 -7.362969 3.65984949 -5.9296875 2.89453125 C-5.25164062 2.53746094 -4.57359375 2.18039062 -3.875 1.8125 C-2.85019531 1.26529297 -2.85019531 1.26529297 -1.8046875 0.70703125 C-1.20914062 0.47371094 -0.61359375 0.24039063 0 0 Z " fill="#F6DDDF" transform="translate(406,682)"/>
<path d="M0 0 C1.98 0.99 3.96 1.98 6 3 C6 4.65 6 6.3 6 8 C4.68 8 3.36 8 2 8 C2 7.34 2 6.68 2 6 C1.34 6 0.68 6 0 6 C-0.66 5.34 -1.32 4.68 -2 4 C-2 3.34 -2 2.68 -2 2 C-1.34 2 -0.68 2 0 2 C0 1.34 0 0.68 0 0 Z " fill="#3E263C" transform="translate(307,513)"/>
<path d="M0 0 C-0.77904328 10.55808656 -0.77904328 10.55808656 -3 15 C-3.66 14.01 -4.32 13.02 -5 12 C-4.34 12 -3.68 12 -3 12 C-3 9.36 -3 6.72 -3 4 C-4.32 3.34 -5.64 2.68 -7 2 C-2.25 0 -2.25 0 0 0 Z " fill="#CB5B66" transform="translate(416,660)"/>
<path d="M0 0 C4.86896303 0.59619955 9.32790951 1.56976822 14 3 C14 3.33 14 3.66 14 4 C12.08364783 4.05423638 10.16685075 4.09289963 8.25 4.125 C6.64898437 4.15980469 6.64898437 4.15980469 5.015625 4.1953125 C2.07529894 4.00487687 0.47638122 3.52670104 -2 2 C-1.34 2 -0.68 2 0 2 C0 1.34 0 0.68 0 0 Z " fill="#3E303E" transform="translate(486,618)"/>
<path d="M0 0 C6.19887485 -0.37952295 10.4477112 0.1647887 16 3 C16 3.33 16 3.66 16 4 C9.79029227 4.33266291 5.71735105 3.45029331 0 1 C0 0.67 0 0.34 0 0 Z " fill="#D56C75" transform="translate(378,684)"/>
<path d="M0 0 C-4.95 2.31 -9.9 4.62 -15 7 C-15 6.34 -15 5.68 -15 5 C-13.609375 3.74609375 -13.609375 3.74609375 -11.75 2.4375 C-11.14671875 2.00308594 -10.5434375 1.56867187 -9.921875 1.12109375 C-6.10905184 -1.1030531 -4.37565448 -1.09391362 0 0 Z " fill="#86B0BE" transform="translate(164,524)"/>
<path d="M0 0 C1.65 0 3.3 0 5 0 C2.03 3.96 2.03 3.96 -1 8 C-1.99 7.67 -2.98 7.34 -4 7 C-2.92598892 4.08482708 -2.22189824 2.22189824 0 0 Z " fill="#EDEAEF" transform="translate(246,521)"/>
<path d="M0 0 C2.875 -0.125 2.875 -0.125 6 0 C6.66 0.66 7.32 1.32 8 2 C1.60985973 3.58444052 -3.50448709 4.20287276 -10 3 C-10 2.67 -10 2.34 -10 2 C-6.7 1.67 -3.4 1.34 0 1 C0 0.67 0 0.34 0 0 Z " fill="#C2D6E0" transform="translate(234,746)"/>
<path d="M0 0 C0.99 1.0828125 0.99 1.0828125 2 2.1875 C5.24136533 5.45688866 9.04374711 7.6930039 13 10 C9.80367098 11.06544301 9.02974348 11.19353531 6 10 C4.62689293 8.70766393 3.28965176 7.37562854 2 6 C1.34 5.67 0.68 5.34 0 5 C0 3.35 0 1.7 0 0 Z " fill="#FBEDEC" transform="translate(369,676)"/>
<path d="M0 0 C5.01113235 1.4317521 6.94469549 3.98445693 10 8 C5.51658163 8.36352041 5.51658163 8.36352041 3.3125 6.8125 C1.75175081 4.65717969 0.87947433 2.50311926 0 0 Z " fill="#EEB7B9" transform="translate(534,640)"/>
<path d="M0 0 C4.19813062 3.74427866 6.07776117 6.8403063 8 12 C7.01 12 6.02 12 5 12 C0 4.5 0 4.5 0 0 Z " fill="#E5F4F5" transform="translate(584,491)"/>
<path d="M0 0 C-3.57227299 2.44955862 -5.69506885 3.22657532 -10 3 C-10.99 3.33 -11.98 3.66 -13 4 C-13.66 3.34 -14.32 2.68 -15 2 C-13.25364835 1.46706165 -11.50272348 0.94909337 -9.75 0.4375 C-8.77546875 0.14746094 -7.8009375 -0.14257812 -6.796875 -0.44140625 C-4.03756068 -0.99249836 -2.6087176 -0.93789609 0 0 Z " fill="#E7F4F7" transform="translate(471,450)"/>
<path d="M0 0 C0.6875 1.8125 0.6875 1.8125 1 4 C-0.25 5.75 -0.25 5.75 -2 7 C-2.99 7 -3.98 7 -5 7 C-5.33 7.99 -5.66 8.98 -6 10 C-6.66 9.67 -7.32 9.34 -8 9 C-7.04663979 7.68388323 -6.08714226 6.37221039 -5.125 5.0625 C-4.59132813 4.33160156 -4.05765625 3.60070312 -3.5078125 2.84765625 C-2 1 -2 1 0 0 Z " fill="#68909E" transform="translate(675,710)"/>
<path d="M0 0 C1.32 0.33 2.64 0.66 4 1 C2.35 2.65 0.7 4.3 -1 6 C-0.34 6 0.32 6 1 6 C1 7.32 1 8.64 1 10 C0.01 10 -0.98 10 -2 10 C-2.79953138 6.71303767 -3.09658936 5.28976808 -2 2 C-1.34 2 -0.68 2 0 2 C0 1.34 0 0.68 0 0 Z " fill="#3B2D3C" transform="translate(355,637)"/>
<path d="M0 0 C1.32 0.33 2.64 0.66 4 1 C4 1.66 4 2.32 4 3 C4.99 3 5.98 3 7 3 C7.33 2.34 7.66 1.68 8 1 C8 3.64 8 6.28 8 9 C6.84775972 8.07038578 5.70340824 7.1309875 4.5625 6.1875 C3.60537109 5.40439453 3.60537109 5.40439453 2.62890625 4.60546875 C1 3 1 3 0 0 Z " fill="#423142" transform="translate(471,609)"/>
<path d="M0 0 C2 3.75 2 3.75 2 6 C1.34 6 0.68 6 0 6 C0.061875 6.928125 0.12375 7.85625 0.1875 8.8125 C0 12 0 12 -1.5 13.875 C-2.2425 14.431875 -2.2425 14.431875 -3 15 C-2.35812082 9.86496656 -1.31727753 5.0056546 0 0 Z M1 8 C1.33 8.99 1.66 9.98 2 11 C1.34 11 0.68 11 0 11 C0.33 10.01 0.66 9.02 1 8 Z " fill="#BFD6E2" transform="translate(98,594)"/>
<path d="M0 0 C1.95979427 0.28168297 3.91782378 0.57566717 5.875 0.875 C7.51082031 1.11863281 7.51082031 1.11863281 9.1796875 1.3671875 C12 2 12 2 14 4 C8.25 5.125 8.25 5.125 6 4 C6 3.34 6 2.68 6 2 C4.35 2.33 2.7 2.66 1 3 C0.67 2.01 0.34 1.02 0 0 Z " fill="#E9F6F9" transform="translate(522,449)"/>
<path d="M0 0 C0 0.66 0 1.32 0 2 C-0.66 2 -1.32 2 -2 2 C-2 2.66 -2 3.32 -2 4 C-1.34 4.33 -0.68 4.66 0 5 C-2.31 5.66 -4.62 6.32 -7 7 C-5.68 5.02 -4.36 3.04 -3 1 C-4.98 1 -6.96 1 -9 1 C-9 0.67 -9 0.34 -9 0 C-3.375 -1.125 -3.375 -1.125 0 0 Z " fill="#8FBDCD" transform="translate(725,1136)"/>
<path d="M0 0 C2.375 0.1875 2.375 0.1875 5 1 C6.3125 3.5625 6.3125 3.5625 7 6 C5.68 6.33 4.36 6.66 3 7 C2.87625 6.360625 2.7525 5.72125 2.625 5.0625 C2.315625 4.0415625 2.315625 4.0415625 2 3 C1.34 2.67 0.68 2.34 0 2 C0 1.34 0 0.68 0 0 Z " fill="#2E182C" transform="translate(504,573)"/>
<path d="M0 0 C3.58806317 3.38872633 6.45684799 6.76141332 9 11 C9 11.66 9 12.32 9 13 C8.34 13 7.68 13 7 13 C5.2734375 10.6640625 5.2734375 10.6640625 3.375 7.625 C2.74335938 6.62726563 2.11171875 5.62953125 1.4609375 4.6015625 C0 2 0 2 0 0 Z " fill="#6F97A5" transform="translate(445,441)"/>
<path d="M0 0 C0.66 0.66 1.32 1.32 2 2 C0.02 4.31 -1.96 6.62 -4 9 C-4.66 8.67 -5.32 8.34 -6 8 C-6 7.01 -6 6.02 -6 5 C-5.34 5 -4.68 5 -4 5 C-3.67 4.01 -3.34 3.02 -3 2 C-2.01 1.34 -1.02 0.68 0 0 Z " fill="#8BB6C3" transform="translate(222,425)"/>
<path d="M0 0 C0.66 0.33 1.32 0.66 2 1 C-1.07999946 4.67230705 -3.2482602 5.56802365 -8 6 C-7 3 -7 3 -3.5625 1.25 C-2.386875 0.8375 -1.21125 0.425 0 0 Z " fill="#E9B9B8" transform="translate(485,638)"/>
<path d="M0 0 C2.76223278 2.76223278 2.57856291 5.20706617 3 9 C2.34 8.34 1.68 7.68 1 7 C0.01 7.495 0.01 7.495 -1 8 C-1.625 5.125 -1.625 5.125 -2 2 C-1.34 1.34 -0.68 0.68 0 0 Z " fill="#402C40" transform="translate(312,584)"/>
<path d="M0 0 C0.33 0.66 0.66 1.32 1 2 C-0.41538717 2.33872513 -1.83237963 2.67074624 -3.25 3 C-4.03890625 3.185625 -4.8278125 3.37125 -5.640625 3.5625 C-8 4 -8 4 -12 4 C-12 3.34 -12 2.68 -12 2 C-7.82262526 0.40861915 -4.46839215 -0.21278058 0 0 Z " fill="#8CB4C3" transform="translate(300,380)"/>
<path d="M0 0 C3 2 3 2 3.73046875 5.4765625 C3.89648293 6.85780047 4.04831396 8.24080122 4.1875 9.625 C4.26935547 10.33140625 4.35121094 11.0378125 4.43554688 11.765625 C4.63580725 13.5090683 4.81949401 15.25440086 5 17 C4.34 17 3.68 17 3 17 C2.86722656 16.10796875 2.73445313 15.2159375 2.59765625 14.296875 C2.42105469 13.12640625 2.24445313 11.9559375 2.0625 10.75 C1.88847656 9.58984375 1.71445312 8.4296875 1.53515625 7.234375 C1.1272264 4.76893039 0.66098697 2.40575438 0 0 Z " fill="#F8E3E7" transform="translate(363,657)"/>
<path d="M0 0 C1.1875 1.5 1.1875 1.5 2 4 C1.27101296 6.78824238 0.1843275 9.37665092 -1 12 C-1.33 12 -1.66 12 -2 12 C-2 8.37 -2 4.74 -2 1 C-1.34 0.67 -0.68 0.34 0 0 Z " fill="#261224" transform="translate(470,589)"/>
<path d="M0 0 C2.375 -0.125 2.375 -0.125 5 0 C7 2 7 2 7.125 4.625 C7.08375 5.40875 7.0425 6.1925 7 7 C6.01 7.495 6.01 7.495 5 8 C4.67 6.02 4.34 4.04 4 2 C2.68 2 1.36 2 0 2 C0 1.34 0 0.68 0 0 Z " fill="#9DC6D5" transform="translate(754,1140)"/>
<path d="M0 0 C0.99 0 1.98 0 3 0 C3 0.66 3 1.32 3 2 C1.42466914 2.86883706 -0.16064509 3.71959068 -1.75 4.5625 C-2.63171875 5.03816406 -3.5134375 5.51382813 -4.421875 6.00390625 C-7.20701188 7.07998186 -8.26980214 7.06528748 -11 6 C-10.37351562 5.73445312 -9.74703125 5.46890625 -9.1015625 5.1953125 C-8.28429687 4.84210937 -7.46703125 4.48890625 -6.625 4.125 C-5.40683594 3.60292969 -5.40683594 3.60292969 -4.1640625 3.0703125 C-1.86197701 2.07553933 -1.86197701 2.07553933 0 0 Z " fill="#CC5D66" transform="translate(405,680)"/>
<path d="M0 0 C0.66 0.33 1.32 0.66 2 1 C1.67 3.64 1.34 6.28 1 9 C0.01 9 -0.98 9 -2 9 C-2.20140476 5.37471432 -1.85776765 3.13498292 0 0 Z " fill="#F14E54" transform="translate(412,663)"/>
<path d="M0 0 C1.32 0.33 2.64 0.66 4 1 C2.63016497 4.16115776 2.0109362 4.9927092 -1 7 C-4.1875 7.125 -4.1875 7.125 -7 7 C-4.66785852 5.79371992 -2.50357861 4.8345262 0 4 C0 2.68 0 1.36 0 0 Z " fill="#4A3749" transform="translate(252,536)"/>
<path d="M0 0 C0.99 0 1.98 0 3 0 C4.0625 1.875 4.0625 1.875 5 4 C4.67 4.66 4.34 5.32 4 6 C3.34 6 2.68 6 2 6 C1.67 7.32 1.34 8.64 1 10 C0.67 6.7 0.34 3.4 0 0 Z " fill="#6D95A4" transform="translate(602,530)"/>
<path d="M0 0 C6.875 3.625 6.875 3.625 8 7 C7.34 7 6.68 7 6 7 C5.67 7.66 5.34 8.32 5 9 C4.16094435 7.87926138 3.32892169 6.75325453 2.5 5.625 C2.0359375 4.99851562 1.571875 4.37203125 1.09375 3.7265625 C0 2 0 2 0 0 Z " fill="#6493A0" transform="translate(582,486)"/>
<path d="M0 0 C1.65 0.33 3.3 0.66 5 1 C2.14693203 3.32472205 -0.54074837 4.7508258 -4 6 C-4.66 5.34 -5.32 4.68 -6 4 C-4.35 3.67 -2.7 3.34 -1 3 C-0.67 2.01 -0.34 1.02 0 0 Z " fill="#8FB9C8" transform="translate(253,397)"/>
<path d="M0 0 C4.87664009 -0.34833144 7.77050005 0.58314288 12 3 C11.34 3.66 10.68 4.32 10 5 C7.875 4.625 7.875 4.625 6 4 C6 3.34 6 2.68 6 2 C4.35 2 2.7 2 1 2 C0.67 1.34 0.34 0.68 0 0 Z " fill="#E8F7F9" transform="translate(370,386)"/>
<path d="M0 0 C1.32 0 2.64 0 4 0 C4 0.66 4 1.32 4 2 C3.01 2 2.02 2 1 2 C1 4.31 1 6.62 1 9 C0.34 9 -0.32 9 -1 9 C-1.09765625 2.84765625 -1.09765625 2.84765625 -1 1 C-0.67 0.67 -0.34 0.34 0 0 Z " fill="#9AC6D6" transform="translate(748,1140)"/>
<path d="M0 0 C-0.33 0.99 -0.66 1.98 -1 3 C-2.134375 3.12375 -3.26875 3.2475 -4.4375 3.375 C-6.2009375 3.684375 -6.2009375 3.684375 -8 4 C-8.33 4.66 -8.66 5.32 -9 6 C-9.66 5.34 -10.32 4.68 -11 4 C-4.5 0 -4.5 0 0 0 Z " fill="#6994A3" transform="translate(480,796)"/>
<path d="M0 0 C0.66 0 1.32 0 2 0 C0.44499019 3.81684226 -2.03595495 6.19195732 -5 9 C-5.66 8.67 -6.32 8.34 -7 8 C-5.38405168 5.95880212 -3.7143618 3.95927063 -2 2 C-1.34 2 -0.68 2 0 2 C0 1.34 0 0.68 0 0 Z " fill="#E0E4E7" transform="translate(662,670)"/>
<path d="M0 0 C0 0.33 0 0.66 0 1 C-0.58007812 1.03738281 -1.16015625 1.07476563 -1.7578125 1.11328125 C-6.81678864 1.53903667 -10.54279158 2.37138991 -15 5 C-15.33 4.01 -15.66 3.02 -16 2 C-10.60539047 -0.27141454 -5.73842251 -0.20413361 0 0 Z " fill="#5C4B5A" transform="translate(498,569)"/>
<path d="M0 0 C0.99 0 1.98 0 3 0 C3 0.66 3 1.32 3 2 C4.29233607 3.37310707 5.62437146 4.71034824 7 6 C6.34 6.66 5.68 7.32 5 8 C3.02 5.69 1.04 3.38 -1 1 C-0.67 0.67 -0.34 0.34 0 0 Z " fill="#87B2C1" transform="translate(657,569)"/>
<path d="M0 0 C2.5 1.8125 2.5 1.8125 5 4 C5 4.99 5 5.98 5 7 C5.66 7.33 6.32 7.66 7 8 C2.25 7.25 2.25 7.25 0 5 C-0.125 2.375 -0.125 2.375 0 0 Z " fill="#2B182B" transform="translate(242,534)"/>
<path d="M0 0 C2.475 0.99 2.475 0.99 5 2 C4.01 2.495 4.01 2.495 3 3 C2.67 3.99 2.34 4.98 2 6 C1.01 6.33 0.02 6.66 -1 7 C-1.625 4.625 -1.625 4.625 -2 2 C-1.34 1.34 -0.68 0.68 0 0 Z " fill="#331B2F" transform="translate(470,516)"/>
<path d="M0 0 C0.33 0 0.66 0 1 0 C1.10824843 1.6026782 1.18570645 3.20745748 1.25 4.8125 C1.29640625 5.70582031 1.3428125 6.59914063 1.390625 7.51953125 C1 10 1 10 -1.015625 11.82421875 C-1.67046875 12.21222656 -2.3253125 12.60023438 -3 13 C-2.68991116 11.39536551 -2.37683713 9.79130769 -2.0625 8.1875 C-1.88847656 7.29417969 -1.71445313 6.40085937 -1.53515625 5.48046875 C-1 3 -1 3 0 0 Z " fill="#DAEAF0" transform="translate(195,475)"/>
<path d="M0 0 C1.05283182 3.15849546 1.29904469 4.030755 0 7 C-2.5625 8.75 -2.5625 8.75 -5 10 C-4.34 8.02 -3.68 6.04 -3 4 C-2.34 4 -1.68 4 -1 4 C-0.67 2.68 -0.34 1.36 0 0 Z " fill="#E9F4F6" transform="translate(207,450)"/>
<path d="M0 0 C0.99 0 1.98 0 3 0 C2.32902328 4.19360449 0.1441606 7.40334352 -2 11 C-2.66 11 -3.32 11 -4 11 C-3.71125 10.29875 -3.4225 9.5975 -3.125 8.875 C-1.97866412 5.94547497 -0.97374346 2.99078347 0 0 Z " fill="#87AEBE" transform="translate(212,435)"/>
<path d="M0 0 C0.66 0.99 1.32 1.98 2 3 C0.5998884 5.8002232 -1.26572551 6.56776098 -4 8 C-4.99 8 -5.98 8 -7 8 C-4.69 5.36 -2.38 2.72 0 0 Z " fill="#E7F6F7" transform="translate(223,427)"/>
<path d="M0 0 C6.75 -0.125 6.75 -0.125 9 1 C8.67 1.99 8.34 2.98 8 4 C5.64828869 3.40138258 3.3140622 2.73075648 1 2 C0.67 1.34 0.34 0.68 0 0 Z " fill="#8CB6C8" transform="translate(376,386)"/>
<path d="M0 0 C0.33 0.66 0.66 1.32 1 2 C1.53625 1.814375 2.0725 1.62875 2.625 1.4375 C5.61990614 0.88580676 8.03745829 1.39402556 11 2 C11 2.33 11 2.66 11 3 C9.02 3 7.04 3 5 3 C4.67 3.66 4.34 4.32 4 5 C2.33333333 5 0.66666667 5 -1 5 C-0.67 3.35 -0.34 1.7 0 0 Z " fill="#8BB9CB" transform="translate(709,1147)"/>
<path d="M0 0 C-0.33 0.99 -0.66 1.98 -1 3 C-3.85384047 4.37407134 -5.1634548 3.95284958 -8.25 3.0625 C-9.1575 2.711875 -10.065 2.36125 -11 2 C-11 1.67 -11 1.34 -11 1 C-7.26562152 0.12132271 -3.83225427 -0.08912219 0 0 Z " fill="#DCD9DE" transform="translate(432,635)"/>
<path d="M0 0 C3.53586014 3.17320782 5.58578031 5.16743695 6 10 C5.34 9.67 4.68 9.34 4 9 C4 8.34 4 7.68 4 7 C3.01 7 2.02 7 1 7 C0.67 4.69 0.34 2.38 0 0 Z " fill="#5B8796" transform="translate(601,523)"/>
<path d="M0 0 C0.33 0.99 0.66 1.98 1 3 C-0.8125 5.6875 -0.8125 5.6875 -3 8 C-3.66 8 -4.32 8 -5 8 C-4.67 6.35 -4.34 4.7 -4 3 C-3.01 3 -2.02 3 -1 3 C-0.67 2.01 -0.34 1.02 0 0 Z " fill="#C9DEEA" transform="translate(522,753)"/>
<path d="M0 0 C3.67230705 3.07999946 4.56802365 5.2482602 5 10 C4.34 9.67 3.68 9.34 3 9 C3 8.34 3 7.68 3 7 C2.34 7 1.68 7 1 7 C0.67 4.69 0.34 2.38 0 0 Z " fill="#86AFBF" transform="translate(105,685)"/>
<path d="M0 0 C0.99 0 1.98 0 3 0 C4 3 4 3 2.5625 6.1875 C1.7890625 7.5796875 1.7890625 7.5796875 1 9 C0.67 9 0.34 9 0 9 C0 6.03 0 3.06 0 0 Z " fill="#372737" transform="translate(263,587)"/>
<path d="M0 0 C1.14926266 0.95421808 2.29430541 1.91352045 3.4375 2.875 C4.07558594 3.40867187 4.71367187 3.94234375 5.37109375 4.4921875 C7 6 7 6 8 8 C6.0625 7.6875 6.0625 7.6875 4 7 C3.67 6.01 3.34 5.02 3 4 C0.99983534 2.79117904 0.99983534 2.79117904 -1 2 C-0.67 1.34 -0.34 0.68 0 0 Z " fill="#E4F3F5" transform="translate(419,412)"/>
<path d="M0 0 C1.98 0.66 3.96 1.32 6 2 C6.33 3.65 6.66 5.3 7 7 C1.125 3.375 1.125 3.375 0 0 Z " fill="#88B0C0" transform="translate(410,403)"/>
<path d="M0 0 C-0.99 0.66 -1.98 1.32 -3 2 C-2.34 2.33 -1.68 2.66 -1 3 C-1 3.33 -1 3.66 -1 4 C-2.98 4 -4.96 4 -7 4 C-7.33 3.34 -7.66 2.68 -8 2 C-7 0 -7 0 -5.125 -0.6875 C-3 -1 -3 -1 0 0 Z " fill="#473446" transform="translate(538,539)"/>
<path d="M0 0 C0.5775 0.37125 1.155 0.7425 1.75 1.125 C4 2.29166667 4 2.29166667 6.25 1.125 C6.8275 0.75375 7.405 0.3825 8 0 C7.67 1.32 7.34 2.64 7 4 C4.69 4 2.38 4 0 4 C0 2.68 0 1.36 0 0 Z " fill="#3E263C" transform="translate(304,524)"/>
<path d="M0 0 C0.99 0 1.98 0 3 0 C3.33 1.32 3.66 2.64 4 4 C2.68 4.33 1.36 4.66 0 5 C-0.33 4.01 -0.66 3.02 -1 2 C-0.67 1.34 -0.34 0.68 0 0 Z " fill="#7FB0C1" transform="translate(755,1142)"/>
<path d="M0 0 C0.66 0.33 1.32 0.66 2 1 C2 2.32 2 3.64 2 5 C1.01 4.67 0.02 4.34 -1 4 C-0.67 2.68 -0.34 1.36 0 0 Z M2 1 C2.66 1 3.32 1 4 1 C4 1.66 4 2.32 4 3 C3.34 3 2.68 3 2 3 C2 2.34 2 1.68 2 1 Z M-1 5 C-1 5.99 -1 6.98 -1 8 C-1.66 7.67 -2.32 7.34 -3 7 C-2.34 6.34 -1.68 5.68 -1 5 Z " fill="#548999" transform="translate(667,720)"/>
<path d="M0 0 C1.9375 0.6875 1.9375 0.6875 4 2 C4.75 4.625 4.75 4.625 5 7 C3.02 5.68 1.04 4.36 -1 3 C-0.67 2.01 -0.34 1.02 0 0 Z " fill="#C3D8E3" transform="translate(131,715)"/>
<path d="M0 0 C0.89203125 0.10183594 1.7840625 0.20367188 2.703125 0.30859375 C3.37859375 0.39238281 4.0540625 0.47617187 4.75 0.5625 C4.75 0.8925 4.75 1.2225 4.75 1.5625 C3.16870971 1.78581199 1.58478911 1.99054644 0 2.1875 C-1.32257813 2.36152344 -1.32257813 2.36152344 -2.671875 2.5390625 C-5.47859878 2.56457817 -6.88384866 2.01093844 -9.25 0.5625 C-5.98086376 -0.46865279 -3.38958652 -0.4013984 0 0 Z " fill="#2D1A2F" transform="translate(389.25,652.4375)"/>
<path d="M0 0 C1.98 0.495 1.98 0.495 4 1 C3.34 2.65 2.68 4.3 2 6 C1.01 6 0.02 6 -1 6 C-0.67 4.02 -0.34 2.04 0 0 Z " fill="#3C2B3B" transform="translate(513,606)"/>
<path d="M0 0 C1.45880109 0.14107747 2.91703551 0.28802415 4.375 0.4375 C5.59316406 0.55931641 5.59316406 0.55931641 6.8359375 0.68359375 C9 1 9 1 11 2 C9.41727399 3.58272601 7.61965997 3.34735747 5.4375 3.5625 C4.19806641 3.68818359 4.19806641 3.68818359 2.93359375 3.81640625 C1.97646484 3.90728516 1.97646484 3.90728516 1 4 C0.67 2.68 0.34 1.36 0 0 Z " fill="#4C3A4B" transform="translate(291,591)"/>
<path d="M0 0 C1.20628008 2.33214148 2.1654738 4.49642139 3 7 C3.66 7.66 4.32 8.32 5 9 C4.01 9.33 3.02 9.66 2 10 C0.4375 8.375 0.4375 8.375 -1 6 C-0.6875 2.75 -0.6875 2.75 0 0 Z " fill="#392B3B" transform="translate(494,584)"/>
<path d="M0 0 C0.66 0 1.32 0 2 0 C1.44894091 3.9492568 0.61064629 7.34920174 -1 11 C-2.41687119 6.74938644 -1.19320039 4.28148375 0 0 Z " fill="#8EB4C0" transform="translate(197,464)"/>
<path d="M0 0 C-0.66 1.32 -1.32 2.64 -2 4 C-3.98 4 -5.96 4 -8 4 C-7.67 3.01 -7.34 2.02 -7 1 C-2.25 0 -2.25 0 0 0 Z " fill="#6694A5" transform="translate(612,755)"/>
<path d="M0 0 C4.455 1.98 4.455 1.98 9 4 C4.23374833 5.19156292 3.12120649 4.3415946 -1 2 C-0.67 1.34 -0.34 0.68 0 0 Z " fill="#BFDAE4" transform="translate(167,739)"/>
<path d="M0 0 C1.32 0 2.64 0 4 0 C4 1.32 4 2.64 4 4 C3.34 4 2.68 4 2 4 C1.67 4.99 1.34 5.98 1 7 C0.67 4.69 0.34 2.38 0 0 Z " fill="#311831" transform="translate(364,651)"/>
<path d="M0 0 C0.99 0.33 1.98 0.66 3 1 C3.125 3.875 3.125 3.875 3 7 C2.34 7.66 1.68 8.32 1 9 C0 2.25 0 2.25 0 0 Z " fill="#5C8B9C" transform="translate(681,597)"/>
<path d="M0 0 C0.99 0.33 1.98 0.66 3 1 C1.515 4.96 1.515 4.96 0 9 C-1.15941038 5.52176885 -0.70820884 3.54104422 0 0 Z " fill="#98BACC" transform="translate(101,582)"/>
<path d="M0 0 C0.75 1.75 0.75 1.75 1 4 C-0.8125 6.25 -0.8125 6.25 -3 8 C-3.66 8 -4.32 8 -5 8 C-5 7.34 -5 6.68 -5 6 C-4.34 6 -3.68 6 -3 6 C-2.87625 5.38125 -2.7525 4.7625 -2.625 4.125 C-2 2 -2 2 0 0 Z " fill="#DCECEF" transform="translate(119,557)"/>
<path d="M0 0 C0.66 0.33 1.32 0.66 2 1 C2 2.65 2 4.3 2 6 C1.01 6 0.02 6 -1 6 C-1.625 4.125 -1.625 4.125 -2 2 C-1.34 1.34 -0.68 0.68 0 0 Z " fill="#3E2B3B" transform="translate(539,532)"/>
<path d="M0 0 C0.99 1.32 1.98 2.64 3 4 C2.34 5.32 1.68 6.64 1 8 C0.34 7.67 -0.32 7.34 -1 7 C-0.67 4.69 -0.34 2.38 0 0 Z " fill="#F7F7F8" transform="translate(541,526)"/>
<path d="M0 0 C0.99 0.33 1.98 0.66 3 1 C3.33 2.65 3.66 4.3 4 6 C-0.875 4.25 -0.875 4.25 -2 2 C-1.34 2 -0.68 2 0 2 C0 1.34 0 0.68 0 0 Z " fill="#8DB6C5" transform="translate(402,396)"/>
<path d="M0 0 C0.99 0 1.98 0 3 0 C3.33 1.32 3.66 2.64 4 4 C4.66 4 5.32 4 6 4 C5.67 4.99 5.34 5.98 5 7 C3.29115995 5.37660195 1.62553283 3.70680947 0 2 C0 1.34 0 0.68 0 0 Z " fill="#BEDBE5" transform="translate(266,762)"/>
<path d="M0 0 C0.66 0 1.32 0 2 0 C2.6875 2.3125 2.6875 2.3125 3 5 C1.5625 6.8125 1.5625 6.8125 0 8 C-0.66 7.34 -1.32 6.68 -2 6 C-1.34 6 -0.68 6 0 6 C0 4.02 0 2.04 0 0 Z " fill="#E25A5D" transform="translate(373,672)"/>
<path d="M0 0 C1.27875 -0.061875 2.5575 -0.12375 3.875 -0.1875 C4.95394531 -0.23970703 4.95394531 -0.23970703 6.0546875 -0.29296875 C6.69664062 -0.19628906 7.33859375 -0.09960938 8 0 C8.66 0.99 9.32 1.98 10 3 C6.28111761 2.49287967 3.26545761 1.88391785 0 0 Z " fill="#E8BCB9" transform="translate(250,666)"/>
<path d="M0 0 C0.66 0.33 1.32 0.66 2 1 C1.67 2.32 1.34 3.64 1 5 C-0.32 5 -1.64 5 -3 5 C-1.125 1.125 -1.125 1.125 0 0 Z " fill="#F8F4F1" transform="translate(475,640)"/>
<path d="M0 0 C-0.33 0.99 -0.66 1.98 -1 3 C-5.455 2.01 -5.455 2.01 -10 1 C-10 0.67 -10 0.34 -10 0 C-6.33694766 -0.74926071 -3.57644848 -1.2380014 0 0 Z " fill="#DFDBE1" transform="translate(367,636)"/>
<path d="M0 0 C0.99 0.33 1.98 0.66 3 1 C2.34 2.32 1.68 3.64 1 5 C0.01 4.67 -0.98 4.34 -2 4 C-1.34 2.68 -0.68 1.36 0 0 Z " fill="#2C172B" transform="translate(474,578)"/>
<path d="M0 0 C0.66 0 1.32 0 2 0 C2.33 1.65 2.66 3.3 3 5 C1.35 5 -0.3 5 -2 5 C-1 2 -1 2 0 0 Z " fill="#EBF6F7" transform="translate(596,515)"/>
</svg>
